<svg width="100" height="100" viewBox="0 0 100 100" fill="none" xmlns="http://www.w3.org/2000/svg">
<path fill-rule="evenodd" clip-rule="evenodd" d="M43.0534 5.02018C47.0094 1.62205 52.8482 1.62442 56.8023 5.02289C58.2078 6.23097 59.5947 7.44008 60.9646 8.65216C62.7875 8.28101 64.6231 7.92158 66.4741 7.57308C71.5993 6.60826 76.6543 9.52966 78.3793 14.4499C78.9928 16.1989 79.5893 17.9394 80.17 19.6741C81.9336 20.2641 83.7028 20.8706 85.48 21.4942C90.4014 23.2212 93.3186 28.2789 92.3521 33.4024C92.0014 35.2647 91.6393 37.1105 91.2657 38.9427C92.5057 40.3432 93.7428 41.7613 94.9786 43.1991C98.3771 47.1531 98.3793 52.9919 94.9814 56.9479C93.7536 58.3769 92.5243 59.7872 91.2914 61.1805C91.6557 62.9728 92.0093 64.7783 92.3528 66.5995C93.3193 71.7229 90.4021 76.7807 85.4807 78.5079C83.7036 79.1314 81.9336 79.7386 80.1686 80.3286C79.5886 82.0629 78.9921 83.8029 78.3793 85.5522C76.6536 90.4722 71.5986 93.3936 66.4734 92.4286C64.6638 92.0879 62.8688 91.7372 61.0862 91.3743C59.7236 92.58 58.3447 93.7814 56.9478 94.9814C52.9918 98.3793 47.1531 98.3772 43.199 94.9786C41.7936 93.7707 40.4068 92.5614 39.0371 91.3493C37.2139 91.7207 35.3778 92.08 33.5265 92.4286C28.4014 93.3936 23.3461 90.4722 21.621 85.5522C21.0078 83.8029 20.4114 82.0629 19.8311 80.3286C18.0665 79.7379 16.2966 79.1314 14.5191 78.5079C9.59813 76.7807 6.68082 71.7229 7.64699 66.5995C7.99827 64.7365 8.36034 62.8899 8.73384 61.0571C7.49441 59.6571 6.25809 58.2394 5.02286 56.8023C1.62439 52.8482 1.62201 47.0095 5.02015 43.0534C6.24741 41.6247 7.47656 40.2147 8.70941 38.8217C8.3447 37.0292 7.99099 35.2237 7.64756 33.4024C6.68144 28.2789 9.59877 23.2212 14.5196 21.4942C16.2968 20.8706 18.0662 20.2641 19.8303 19.6741C20.4107 17.9394 21.0072 16.1989 21.6204 14.4499C23.3455 9.52973 28.4008 6.60826 33.5259 7.57308C35.3358 7.91387 37.1312 8.26508 38.9142 8.62751C40.2771 7.42216 41.6563 6.22026 43.0534 5.02018ZM67.8851 39.6822C70.0764 37.6942 70.2414 34.3063 68.2535 32.1149C66.2656 29.9236 62.8777 29.7586 60.6863 31.7464C55.4326 36.5124 51.4293 40.8469 48.0404 46.1364C45.9188 49.4478 44.0958 53.0438 42.3516 57.2207L36.8432 51.5402C34.7836 49.4162 31.392 49.3639 29.268 51.4237C27.144 53.4833 27.0918 56.8749 29.1514 58.9989L40.5291 70.732C41.823 72.0664 43.7161 72.635 45.531 72.2336C47.3459 71.8322 48.8232 70.5193 49.4343 68.7639C52.0465 61.26 54.3372 56.1692 57.062 51.9163C59.7656 47.6965 63.0407 44.0766 67.8851 39.6822Z" fill="white"/>
</svg>
