<svg width="800" height="800" viewBox="0 0 800 800" fill="none" xmlns="http://www.w3.org/2000/svg">
<path d="M648.95 19.5C679.957 19.5 708.867 32.3151 734.942 57.3076L737.502 59.7607L737.423 59.7998C765.274 87.4269 779.895 117.138 780.483 148.177V148.18C781.064 180.534 766.224 212.331 736.895 242.565C708.813 271.588 286.1 689.908 268.133 707.677C265.055 710.729 261.256 712.966 257.125 714.214L257.118 714.216C228.676 722.722 55.7382 778.648 54.002 779.219L53.9902 779.223C51.3346 780.082 48.6229 780.5 45.9121 780.5C39.0575 780.5 32.3617 777.813 27.3379 772.812L27.333 772.808C20.3644 765.834 17.7641 755.508 20.6758 746.032C21.2114 744.278 72.3939 576.657 82.5879 538.914L82.5898 538.907C83.8107 534.437 86.1748 530.325 89.457 527.04L91.2256 528.808C89.5222 527.106 89.461 527.042 89.4619 527.036C89.4653 527.033 89.4708 527.027 89.4775 527.021C89.4913 527.007 89.5117 526.985 89.5391 526.958L90.7578 525.739C91.6157 524.88 92.8886 523.605 94.5498 521.942C97.8723 518.616 102.747 513.736 108.956 507.521C121.374 495.089 139.129 477.314 160.476 455.944C203.17 413.204 260.234 356.081 317.713 298.546C432.665 183.482 549.294 66.7571 555.95 60.167C565.502 50.6808 600.631 19.5 648.95 19.5ZM127.901 572.597C122.43 590.774 114.331 616.18 105.943 642.465C97.7741 668.066 89.3305 694.509 82.7559 715.985C104.802 708.816 132.103 699.627 158.023 690.887C184.442 681.979 209.437 673.535 225.929 668.191C221.197 653.966 211.363 632.218 191.724 612.389V612.388C166.246 586.696 141.272 576.498 127.901 572.597ZM550.954 140.164C460.055 231.106 247.405 443.976 162.603 528.863C181.698 537.101 205.613 551.085 229.107 574.776L230.061 575.744C248.755 594.849 260.874 615.146 268.685 632.482C354.217 547.823 563.097 341.006 655.355 249.159C653.356 239.712 644.993 208.371 617.68 180.796C590.2 153.05 563.315 143.36 550.954 140.164ZM648.903 72.7715C634.274 72.7715 620.976 78.3986 610.915 84.4609C600.871 90.5128 594.233 96.8896 592.972 98.1406L592.937 98.1758C592.775 98.3296 592.539 98.563 592.234 98.8672C610.668 107.269 633.01 120.913 655.039 143.137C676.613 164.883 689.594 188.272 697.34 207.149C697.537 206.951 697.724 206.76 697.903 206.579L699.093 205.351C718.595 185.204 727.936 166.304 727.624 149.144C727.312 132.346 717.741 114.44 698.449 95.9043C682.314 80.4055 665.646 72.7716 648.903 72.7715Z" fill="black" stroke="black" stroke-width="5"/>
</svg>
