<svg width="91" height="91" viewBox="0 0 91 91" fill="none" xmlns="http://www.w3.org/2000/svg">
<path d="M70.178 22.3974C69.1916 22.3974 68.3923 21.5979 68.3923 20.6117C68.3923 19.6255 69.1916 18.826 70.178 18.826" stroke="white" stroke-width="5" stroke-linecap="round" stroke-linejoin="round"/>
<path d="M70.1781 22.3974C71.1645 22.3974 71.9638 21.5979 71.9638 20.6117C71.9638 19.6255 71.1645 18.826 70.1781 18.826" stroke="white" stroke-width="5" stroke-linecap="round" stroke-linejoin="round"/>
<path d="M2.5 20.8787C2.5 10.7284 10.7284 2.5 20.8787 2.5H69.8887C80.0387 2.5 88.2673 10.7284 88.2673 20.8787V69.8886C88.2673 80.0386 80.0387 88.2672 69.8887 88.2672H20.8787C10.7284 88.2672 2.5 80.0386 2.5 69.8886V20.8787Z" stroke="white" stroke-width="5" stroke-linecap="round" stroke-linejoin="round"/>
<path d="M27.1694 45.3829C27.1694 47.7748 27.6406 50.1433 28.5559 52.3532C29.4713 54.563 30.8129 56.571 32.5043 58.2623C34.1956 59.9537 36.2036 61.2953 38.4134 62.2107C40.6233 63.126 42.9918 63.5971 45.3837 63.5971C47.7757 63.5971 50.1442 63.126 52.354 62.2107C54.5639 61.2953 56.5718 59.9537 58.2632 58.2623C59.9545 56.571 61.2962 54.563 62.2115 52.3532C63.1269 50.1433 63.598 47.7748 63.598 45.3829C63.598 40.5521 61.679 35.9193 58.2632 32.5034C54.8473 29.0876 50.2144 27.1686 45.3837 27.1686C40.553 27.1686 35.9201 29.0876 32.5043 32.5034C29.0884 35.9193 27.1694 40.5521 27.1694 45.3829Z" stroke="white" stroke-width="5" stroke-linecap="round" stroke-linejoin="round"/>
</svg>
