<svg width="338" height="79" viewBox="0 0 338 79" fill="none" xmlns="http://www.w3.org/2000/svg">
<g clip-path="url(#clip0_12_147)">
<g filter="url(#filter0_d_12_147)">
<path d="M104.695 8.00201H39.8585C22.5414 8.00201 8.50317 21.2096 8.50317 37.502C8.50317 53.7944 22.5414 67.002 39.8585 67.002H104.695C122.012 67.002 136.05 53.7944 136.05 37.502C136.05 21.2096 122.012 8.00201 104.695 8.00201Z" stroke="white" stroke-width="2"/>
</g>
<path d="M103.631 63.0011C99.8732 63.0104 96.1494 62.331 92.6674 61.0011C89.3402 59.7325 86.3013 57.8774 83.7146 55.5353C81.1567 53.2321 79.1057 50.4773 77.6785 47.4288C76.2136 44.3018 75.4598 40.9213 75.4655 37.504C75.4598 34.0867 76.2136 30.7062 77.6785 27.5792C79.1057 24.5307 81.1567 21.7759 83.7146 19.4728C86.3013 17.1306 89.3402 15.2755 92.6674 14.0069C96.1494 12.677 99.8732 11.9976 103.631 12.0069C107.389 11.9977 111.113 12.677 114.595 14.0069C117.922 15.2756 120.961 17.1307 123.549 19.4728C126.107 21.7758 128.158 24.5306 129.586 27.5792C131.051 30.7061 131.805 34.0866 131.8 37.504C131.805 40.9214 131.051 44.3019 129.586 47.4288C128.158 50.4774 126.107 53.2322 123.549 55.5353C120.961 57.8773 117.922 59.7324 114.595 61.0011C111.113 62.331 107.389 63.0103 103.631 63.0011ZM92.9076 28.0011C91.6209 27.9598 90.3384 28.1607 89.1353 28.5919C87.9322 29.0231 86.8325 29.6756 85.9011 30.5118C84.9696 31.348 84.2251 32.3515 83.711 33.462C83.1968 34.5725 82.9234 35.7674 82.9069 36.9786C82.924 38.1958 83.1991 39.3979 83.7161 40.5138C84.2332 41.6296 84.9818 42.6375 85.9181 43.4776C86.8544 44.3178 87.9594 44.9732 89.1685 45.4063C90.3777 45.8395 91.6665 46.0416 92.9596 46.0001C95.1488 46.0545 97.2932 45.4099 99.0438 44.172C100.794 42.9341 102.048 41.1753 102.601 39.1817H97.4992C97.1333 40.046 96.5002 40.7875 95.6819 41.3097C94.8635 41.8318 93.8974 42.1113 92.9086 42.1114C92.1974 42.1188 91.493 41.9793 90.8446 41.7042C90.1962 41.4291 89.6194 41.0241 89.1545 40.5177C88.2614 39.521 87.7735 38.2588 87.778 36.9552C87.7771 35.6936 88.2458 34.4715 89.1025 33.5011C89.5648 32.9844 90.1442 32.5713 90.7983 32.2931C91.4524 32.0148 92.1644 31.878 92.882 31.8927C93.887 31.8943 94.8676 32.1847 95.6925 32.7247C96.5174 33.2647 97.1473 34.0291 97.4982 34.9151H102.6C102.193 33.1832 101.215 31.6171 99.8047 30.4395C97.9207 28.8284 95.4532 27.9564 92.9076 28.0011ZM115.749 32.2208V45.6739H120.619V32.2208H124.359V28.3282H111.983V32.2208H115.749ZM105.129 28.3282V45.6739H109.999V28.3282H105.129Z" fill="white"/>
<path d="M35.9269 34.171C35.9552 33.2048 35.6053 32.2625 34.9438 31.523C34.4224 31.0225 33.7966 30.6288 33.1057 30.3667C32.4148 30.1046 31.6738 29.9798 30.9292 30C28.4399 30 25.7306 31.433 25.7306 33.953C25.7306 36.473 28.3198 37.417 29.3625 37.798C31.6509 38.668 32.2727 38.886 32.2727 39.775C32.2682 39.949 32.2271 40.1205 32.1519 40.2795C32.0767 40.4386 31.9689 40.582 31.8345 40.7017C31.7002 40.8214 31.5421 40.915 31.3692 40.977C31.1963 41.039 31.0121 41.0682 30.8272 41.063C30.3457 41.063 29.2817 40.791 29.2817 39.231H25.5095V39.666C25.5095 41.389 26.5724 43.928 30.8686 43.928C34.8013 43.928 36.047 41.77 36.047 39.811C36.047 38.251 35.3445 37.091 32.5746 35.966C29.9046 34.878 29.5039 34.715 29.5039 33.917C29.5297 33.615 29.6814 33.3349 29.9259 33.1378C30.1705 32.9407 30.488 32.8426 30.8091 32.865C31.9783 32.865 32.0941 33.717 32.1739 34.171H35.9269ZM41.708 30.254H38.3758V33.609H36.7305V35.89H38.3758V43.67H41.708V35.89H43.314V33.609H41.708V30.254ZM55.0771 33.609H51.7449V39.14C51.7449 40.74 50.8011 41.189 49.8381 41.189C48.0514 41.189 48.0514 39.865 48.0514 39.176V33.609H44.7192V39.63C44.6348 40.1927 44.6842 40.7659 44.8639 41.3084C45.0435 41.8509 45.3488 42.3491 45.7579 42.7672C46.1669 43.1852 46.6695 43.5126 47.2293 43.7258C47.7891 43.939 48.3923 44.0327 48.9952 44C49.5699 44.0599 50.1505 43.959 50.6646 43.71C51.1786 43.461 51.6032 43.0749 51.8852 42.6H51.9256V43.67H55.0771V33.609ZM69.0881 30.254H65.756V34.461C65.3293 34.058 64.818 33.7431 64.2547 33.5365C63.6913 33.3299 63.0884 33.2361 62.4844 33.261C61.7421 33.2499 61.0052 33.3819 60.3191 33.6489C59.6331 33.9159 59.0124 34.3122 58.4953 34.8134C57.9782 35.3146 57.5756 35.9101 57.3124 36.5632C57.0492 37.2163 56.9309 37.9132 56.9648 38.611C56.9258 39.3164 57.0424 40.0218 57.3071 40.6828C57.5718 41.3438 57.979 41.9462 58.5031 42.452C59.0272 42.9578 59.6568 43.3562 60.3523 43.6221C61.0479 43.888 61.7944 44.0156 62.545 43.997C63.1836 44.0684 63.8308 43.9751 64.4175 43.7273C65.0042 43.4795 65.5084 43.0864 65.8761 42.59H65.9165V43.678H69.0881V30.254ZM60.2927 38.596C60.3298 37.9158 60.6432 37.275 61.168 36.806C61.6929 36.3369 62.3892 36.0753 63.1131 36.0753C63.837 36.0753 64.5333 36.3369 65.0581 36.806C65.583 37.275 65.8963 37.9158 65.9335 38.596C65.9394 38.9455 65.8691 39.2923 65.727 39.6152C65.5848 39.9381 65.3738 40.2301 65.1069 40.4733C64.84 40.7164 64.523 40.9054 64.1754 41.0287C63.8278 41.152 63.457 41.2069 63.086 41.19C62.7179 41.2053 62.3504 41.149 62.0066 41.0245C61.6627 40.9 61.3499 40.71 61.0877 40.4665C60.8254 40.223 60.6195 39.9312 60.4827 39.6093C60.3459 39.2875 60.2812 38.9425 60.2927 38.596Z" fill="white"/>
<path d="M161.406 24.8182C161.343 24.2784 161.083 23.8594 160.629 23.5611C160.174 23.2628 159.617 23.1136 158.956 23.1136C158.473 23.1136 158.051 23.1918 157.688 23.348C157.33 23.5043 157.049 23.7191 156.847 23.9925C156.648 24.266 156.548 24.5767 156.548 24.9247C156.548 25.2159 156.618 25.4663 156.756 25.6758C156.898 25.8817 157.079 26.054 157.3 26.1925C157.52 26.3274 157.751 26.4393 157.992 26.5281C158.233 26.6133 158.455 26.6825 158.658 26.7358L159.766 27.0341C160.05 27.1087 160.366 27.2116 160.714 27.343C161.066 27.4744 161.401 27.6538 161.721 27.881C162.044 28.1048 162.31 28.3924 162.52 28.744C162.729 29.0955 162.834 29.527 162.834 30.0384C162.834 30.6278 162.68 31.1605 162.371 31.6364C162.065 32.1122 161.618 32.4904 161.028 32.771C160.442 33.0515 159.73 33.1918 158.892 33.1918C158.111 33.1918 157.434 33.0657 156.863 32.8136C156.295 32.5614 155.847 32.2099 155.52 31.7589C155.197 31.3079 155.014 30.7841 154.972 30.1875H156.335C156.371 30.5994 156.509 30.9403 156.751 31.2102C156.996 31.4766 157.305 31.6754 157.678 31.8068C158.054 31.9347 158.459 31.9986 158.892 31.9986C159.396 31.9986 159.849 31.9169 160.251 31.7536C160.652 31.5866 160.97 31.3558 161.204 31.0611C161.438 30.7628 161.556 30.4148 161.556 30.017C161.556 29.6548 161.454 29.3601 161.252 29.1328C161.05 28.9055 160.783 28.7209 160.453 28.5788C160.123 28.4368 159.766 28.3125 159.382 28.206L158.04 27.8224C157.188 27.5774 156.513 27.2276 156.016 26.7731C155.519 26.3185 155.27 25.7237 155.27 24.9886C155.27 24.3778 155.435 23.8452 155.765 23.3906C156.099 22.9325 156.547 22.5774 157.108 22.3253C157.672 22.0696 158.303 21.9418 158.999 21.9418C159.702 21.9418 160.327 22.0678 160.874 22.32C161.421 22.5685 161.854 22.9094 162.173 23.3427C162.497 23.7759 162.667 24.2678 162.685 24.8182H161.406ZM168.394 24.8182V25.8835H164.154V24.8182H168.394ZM165.389 22.858H166.647V30.6562C166.647 31.0114 166.698 31.2777 166.801 31.4553C166.908 31.6293 167.043 31.7464 167.206 31.8068C167.373 31.8636 167.549 31.892 167.733 31.892C167.872 31.892 167.985 31.8849 168.074 31.8707C168.163 31.853 168.234 31.8388 168.287 31.8281L168.543 32.9574C168.458 32.9893 168.339 33.0213 168.186 33.0533C168.033 33.0888 167.84 33.1065 167.605 33.1065C167.25 33.1065 166.902 33.0302 166.561 32.8775C166.224 32.7248 165.943 32.4922 165.72 32.1797C165.5 31.8672 165.389 31.473 165.389 30.9972V22.858ZM175.441 29.6548V24.8182H176.698V33H175.441V31.6151H175.356C175.164 32.0305 174.866 32.3839 174.461 32.6751C174.056 32.9627 173.545 33.1065 172.927 33.1065C172.415 33.1065 171.961 32.9947 171.563 32.771C171.165 32.5437 170.853 32.2028 170.626 31.7482C170.398 31.2901 170.285 30.7131 170.285 30.017V24.8182H171.542V29.9318C171.542 30.5284 171.709 31.0043 172.043 31.3594C172.38 31.7145 172.81 31.892 173.332 31.892C173.644 31.892 173.962 31.8121 174.285 31.6523C174.612 31.4925 174.885 31.2475 175.105 30.9173C175.329 30.587 175.441 30.1662 175.441 29.6548ZM182.09 33.1705C181.408 33.1705 180.806 32.9982 180.284 32.6538C179.762 32.3058 179.354 31.8157 179.059 31.1836C178.764 30.5479 178.617 29.7969 178.617 28.9304C178.617 28.071 178.764 27.3253 179.059 26.6932C179.354 26.0611 179.764 25.5728 180.29 25.2283C180.815 24.8839 181.422 24.7116 182.111 24.7116C182.644 24.7116 183.065 24.8004 183.374 24.978C183.686 25.152 183.924 25.3509 184.088 25.5746C184.254 25.7947 184.384 25.9759 184.476 26.1179H184.583V22.0909H185.84V33H184.626V31.7429H184.476C184.384 31.892 184.253 32.0803 184.082 32.3075C183.912 32.5312 183.669 32.7319 183.352 32.9094C183.036 33.0835 182.616 33.1705 182.09 33.1705ZM182.26 32.0412C182.765 32.0412 183.191 31.9098 183.539 31.647C183.887 31.3807 184.151 31.0131 184.333 30.5444C184.514 30.0721 184.604 29.527 184.604 28.9091C184.604 28.2983 184.515 27.7638 184.338 27.3058C184.16 26.8441 183.898 26.4854 183.55 26.2298C183.202 25.9705 182.772 25.8409 182.26 25.8409C181.728 25.8409 181.284 25.9776 180.929 26.2511C180.577 26.521 180.313 26.8885 180.135 27.3537C179.961 27.8153 179.874 28.3338 179.874 28.9091C179.874 29.4915 179.963 30.0206 180.14 30.4964C180.322 30.9687 180.588 31.3452 180.939 31.6257C181.295 31.9027 181.735 32.0412 182.26 32.0412ZM191.747 33.1705C190.959 33.1705 190.279 32.9964 189.707 32.6484C189.139 32.2969 188.7 31.8068 188.392 31.1783C188.086 30.5462 187.933 29.8111 187.933 28.973C187.933 28.1349 188.086 27.3963 188.392 26.7571C188.7 26.1143 189.13 25.6136 189.681 25.255C190.235 24.8928 190.881 24.7116 191.62 24.7116C192.046 24.7116 192.466 24.7827 192.882 24.9247C193.297 25.0668 193.676 25.2976 194.017 25.6172C194.357 25.9332 194.629 26.3523 194.832 26.8743C195.034 27.3963 195.135 28.0391 195.135 28.8026V29.3352H188.828V28.2486H193.857C193.857 27.7869 193.764 27.375 193.58 27.0128C193.399 26.6506 193.139 26.3647 192.802 26.1552C192.468 25.9457 192.074 25.8409 191.62 25.8409C191.119 25.8409 190.686 25.9652 190.32 26.2138C189.958 26.4588 189.679 26.7784 189.483 27.1726C189.288 27.5668 189.191 27.9893 189.191 28.4403V29.1648C189.191 29.7827 189.297 30.3065 189.51 30.7362C189.727 31.1623 190.027 31.4872 190.41 31.7109C190.794 31.9311 191.24 32.0412 191.747 32.0412C192.078 32.0412 192.376 31.995 192.642 31.9027C192.912 31.8068 193.145 31.6648 193.34 31.4766C193.535 31.2848 193.686 31.0469 193.793 30.7628L195.007 31.1037C194.879 31.5156 194.665 31.8778 194.363 32.1903C194.061 32.4993 193.688 32.7408 193.244 32.9148C192.8 33.0852 192.301 33.1705 191.747 33.1705ZM198.305 28.0781V33H197.047V24.8182H198.262V26.0966H198.368C198.56 25.6811 198.851 25.3473 199.242 25.0952C199.633 24.8395 200.137 24.7116 200.755 24.7116C201.309 24.7116 201.794 24.8253 202.209 25.0526C202.624 25.2763 202.948 25.6172 203.178 26.0753C203.409 26.5298 203.525 27.1051 203.525 27.8011V33H202.268V27.8864C202.268 27.2436 202.101 26.7429 201.767 26.3842C201.433 26.022 200.975 25.8409 200.393 25.8409C199.991 25.8409 199.633 25.9279 199.317 26.1019C199.004 26.2759 198.757 26.5298 198.576 26.8636C198.395 27.1974 198.305 27.6023 198.305 28.0781ZM209.38 24.8182V25.8835H205.14V24.8182H209.38ZM206.376 22.858H207.633V30.6562C207.633 31.0114 207.684 31.2777 207.787 31.4553C207.894 31.6293 208.029 31.7464 208.192 31.8068C208.359 31.8636 208.535 31.892 208.72 31.892C208.858 31.892 208.972 31.8849 209.06 31.8707C209.149 31.853 209.22 31.8388 209.274 31.8281L209.529 32.9574C209.444 32.9893 209.325 33.0213 209.172 33.0533C209.02 33.0888 208.826 33.1065 208.592 33.1065C208.237 33.1065 207.889 33.0302 207.548 32.8775C207.21 32.7248 206.93 32.4922 206.706 32.1797C206.486 31.8672 206.376 31.473 206.376 30.9972V22.858ZM224.439 25.5H223.118C223.04 25.12 222.903 24.7862 222.707 24.4986C222.516 24.2109 222.281 23.9695 222.004 23.7741C221.731 23.5753 221.427 23.4261 221.093 23.3267C220.76 23.2273 220.412 23.1776 220.049 23.1776C219.389 23.1776 218.791 23.3445 218.254 23.6783C217.722 24.0121 217.297 24.5039 216.981 25.1538C216.669 25.8036 216.513 26.6009 216.513 27.5455C216.513 28.4901 216.669 29.2873 216.981 29.9371C217.297 30.587 217.722 31.0788 218.254 31.4126C218.791 31.7464 219.389 31.9134 220.049 31.9134C220.412 31.9134 220.76 31.8636 221.093 31.7642C221.427 31.6648 221.731 31.5174 222.004 31.3221C222.281 31.1232 222.516 30.88 222.707 30.5923C222.903 30.3011 223.04 29.9673 223.118 29.5909H224.439C224.339 30.1484 224.158 30.6474 223.895 31.0877C223.633 31.5281 223.306 31.9027 222.915 32.2116C222.525 32.517 222.086 32.7496 221.6 32.9094C221.117 33.0692 220.6 33.1491 220.049 33.1491C219.119 33.1491 218.292 32.9219 217.567 32.4673C216.843 32.0128 216.273 31.3665 215.857 30.5284C215.442 29.6903 215.234 28.696 215.234 27.5455C215.234 26.3949 215.442 25.4006 215.857 24.5625C216.273 23.7244 216.843 23.0781 217.567 22.6236C218.292 22.169 219.119 21.9418 220.049 21.9418C220.6 21.9418 221.117 22.0217 221.6 22.1815C222.086 22.3413 222.525 22.5756 222.915 22.8846C223.306 23.19 223.633 23.5629 223.895 24.0032C224.158 24.44 224.339 24.9389 224.439 25.5ZM229.833 33.1705C229.045 33.1705 228.365 32.9964 227.793 32.6484C227.225 32.2969 226.786 31.8068 226.477 31.1783C226.172 30.5462 226.019 29.8111 226.019 28.973C226.019 28.1349 226.172 27.3963 226.477 26.7571C226.786 26.1143 227.216 25.6136 227.767 25.255C228.321 24.8928 228.967 24.7116 229.705 24.7116C230.132 24.7116 230.552 24.7827 230.968 24.9247C231.383 25.0668 231.762 25.2976 232.102 25.6172C232.443 25.9332 232.715 26.3523 232.917 26.8743C233.12 27.3963 233.221 28.0391 233.221 28.8026V29.3352H226.914V28.2486H231.943C231.943 27.7869 231.85 27.375 231.666 27.0128C231.485 26.6506 231.225 26.3647 230.888 26.1552C230.554 25.9457 230.16 25.8409 229.705 25.8409C229.205 25.8409 228.771 25.9652 228.406 26.2138C228.044 26.4588 227.765 26.7784 227.569 27.1726C227.374 27.5668 227.276 27.9893 227.276 28.4403V29.1648C227.276 29.7827 227.383 30.3065 227.596 30.7362C227.813 31.1623 228.113 31.4872 228.496 31.7109C228.88 31.9311 229.325 32.0412 229.833 32.0412C230.164 32.0412 230.462 31.995 230.728 31.9027C230.998 31.8068 231.231 31.6648 231.426 31.4766C231.621 31.2848 231.772 31.0469 231.879 30.7628L233.093 31.1037C232.965 31.5156 232.751 31.8778 232.449 32.1903C232.147 32.4993 231.774 32.7408 231.33 32.9148C230.886 33.0852 230.387 33.1705 229.833 33.1705ZM236.39 28.0781V33H235.133V24.8182H236.348V26.0966H236.454C236.646 25.6811 236.937 25.3473 237.328 25.0952C237.719 24.8395 238.223 24.7116 238.841 24.7116C239.395 24.7116 239.879 24.8253 240.295 25.0526C240.71 25.2763 241.034 25.6172 241.264 26.0753C241.495 26.5298 241.611 27.1051 241.611 27.8011V33H240.354V27.8864C240.354 27.2436 240.187 26.7429 239.853 26.3842C239.519 26.022 239.061 25.8409 238.479 25.8409C238.077 25.8409 237.719 25.9279 237.403 26.1019C237.09 26.2759 236.843 26.5298 236.662 26.8636C236.481 27.1974 236.39 27.6023 236.39 28.0781ZM247.466 24.8182V25.8835H243.226V24.8182H247.466ZM244.462 22.858H245.719V30.6562C245.719 31.0114 245.77 31.2777 245.873 31.4553C245.98 31.6293 246.115 31.7464 246.278 31.8068C246.445 31.8636 246.621 31.892 246.805 31.892C246.944 31.892 247.058 31.8849 247.146 31.8707C247.235 31.853 247.306 31.8388 247.359 31.8281L247.615 32.9574C247.53 32.9893 247.411 33.0213 247.258 33.0533C247.106 33.0888 246.912 33.1065 246.678 33.1065C246.323 33.1065 245.975 33.0302 245.634 32.8775C245.296 32.7248 245.016 32.4922 244.792 32.1797C244.572 31.8672 244.462 31.473 244.462 30.9972V22.858ZM252.699 33.1705C251.911 33.1705 251.231 32.9964 250.659 32.6484C250.091 32.2969 249.653 31.8068 249.344 31.1783C249.038 30.5462 248.886 29.8111 248.886 28.973C248.886 28.1349 249.038 27.3963 249.344 26.7571C249.653 26.1143 250.082 25.6136 250.633 25.255C251.187 24.8928 251.833 24.7116 252.572 24.7116C252.998 24.7116 253.419 24.7827 253.834 24.9247C254.25 25.0668 254.628 25.2976 254.969 25.6172C255.31 25.9332 255.581 26.3523 255.784 26.8743C255.986 27.3963 256.087 28.0391 256.087 28.8026V29.3352H249.78V28.2486H254.809C254.809 27.7869 254.717 27.375 254.532 27.0128C254.351 26.6506 254.092 26.3647 253.754 26.1552C253.42 25.9457 253.026 25.8409 252.572 25.8409C252.071 25.8409 251.638 25.9652 251.272 26.2138C250.91 26.4588 250.631 26.7784 250.436 27.1726C250.24 27.5668 250.143 27.9893 250.143 28.4403V29.1648C250.143 29.7827 250.249 30.3065 250.462 30.7362C250.679 31.1623 250.979 31.4872 251.362 31.7109C251.746 31.9311 252.192 32.0412 252.699 32.0412C253.03 32.0412 253.328 31.995 253.594 31.9027C253.864 31.8068 254.097 31.6648 254.292 31.4766C254.487 31.2848 254.638 31.0469 254.745 30.7628L255.959 31.1037C255.832 31.5156 255.617 31.8778 255.315 32.1903C255.013 32.4993 254.64 32.7408 254.196 32.9148C253.752 33.0852 253.253 33.1705 252.699 33.1705ZM258 33V24.8182H259.214V26.054H259.299C259.448 25.6491 259.718 25.3207 260.109 25.0685C260.5 24.8164 260.94 24.6903 261.43 24.6903C261.522 24.6903 261.638 24.6921 261.776 24.6957C261.915 24.6992 262.019 24.7045 262.09 24.7116V25.9901C262.048 25.9794 261.95 25.9634 261.798 25.9421C261.648 25.9173 261.49 25.9048 261.323 25.9048C260.926 25.9048 260.571 25.9883 260.258 26.1552C259.949 26.3185 259.704 26.5458 259.523 26.837C259.345 27.1246 259.257 27.4531 259.257 27.8224V33H258ZM271.123 33.1705C270.385 33.1705 269.737 32.9947 269.179 32.6431C268.625 32.2915 268.192 31.7997 267.879 31.1676C267.57 30.5355 267.416 29.7969 267.416 28.9517C267.416 28.0994 267.57 27.3555 267.879 26.7198C268.192 26.0842 268.625 25.5906 269.179 25.239C269.737 24.8874 270.385 24.7116 271.123 24.7116C271.862 24.7116 272.508 24.8874 273.062 25.239C273.62 25.5906 274.053 26.0842 274.362 26.7198C274.674 27.3555 274.831 28.0994 274.831 28.9517C274.831 29.7969 274.674 30.5355 274.362 31.1676C274.053 31.7997 273.62 32.2915 273.062 32.6431C272.508 32.9947 271.862 33.1705 271.123 33.1705ZM271.123 32.0412C271.684 32.0412 272.146 31.8974 272.508 31.6097C272.87 31.3221 273.139 30.9439 273.313 30.4751C273.487 30.0064 273.574 29.4986 273.574 28.9517C273.574 28.4048 273.487 27.8952 273.313 27.4229C273.139 26.9506 272.87 26.5689 272.508 26.2777C272.146 25.9865 271.684 25.8409 271.123 25.8409C270.562 25.8409 270.101 25.9865 269.738 26.2777C269.376 26.5689 269.108 26.9506 268.934 27.4229C268.76 27.8952 268.673 28.4048 268.673 28.9517C268.673 29.4986 268.76 30.0064 268.934 30.4751C269.108 30.9439 269.376 31.3221 269.738 31.6097C270.101 31.8974 270.562 32.0412 271.123 32.0412ZM280.393 24.8182V25.8835H275.983V24.8182H280.393ZM277.304 33V23.6889C277.304 23.2202 277.414 22.8295 277.634 22.517C277.854 22.2045 278.14 21.9702 278.491 21.8139C278.843 21.6577 279.214 21.5795 279.605 21.5795C279.914 21.5795 280.166 21.6044 280.361 21.6541C280.556 21.7038 280.702 21.75 280.798 21.7926L280.436 22.8793C280.372 22.858 280.283 22.8313 280.169 22.7994C280.059 22.7674 279.914 22.7514 279.733 22.7514C279.317 22.7514 279.017 22.8562 278.832 23.0657C278.651 23.2752 278.561 23.5824 278.561 23.9872V33H277.304Z" fill="white"/>
<path d="M156.762 41.0909V52H155.441V41.0909H156.762ZM160.497 47.0781V52H159.24V43.8182H160.454V45.0966H160.561C160.753 44.6811 161.044 44.3473 161.434 44.0952C161.825 43.8395 162.329 43.7116 162.947 43.7116C163.501 43.7116 163.986 43.8253 164.401 44.0526C164.817 44.2763 165.14 44.6172 165.371 45.0753C165.602 45.5298 165.717 46.1051 165.717 46.8011V52H164.46V46.8864C164.46 46.2436 164.293 45.7429 163.959 45.3842C163.625 45.022 163.167 44.8409 162.585 44.8409C162.184 44.8409 161.825 44.9279 161.509 45.1019C161.196 45.2759 160.95 45.5298 160.769 45.8636C160.587 46.1974 160.497 46.6023 160.497 47.0781ZM171.658 43.8182V44.8835H167.247V43.8182H171.658ZM168.568 52V42.6889C168.568 42.2202 168.678 41.8295 168.898 41.517C169.119 41.2045 169.404 40.9702 169.756 40.8139C170.108 40.6577 170.479 40.5795 170.869 40.5795C171.178 40.5795 171.43 40.6044 171.626 40.6541C171.821 40.7038 171.967 40.75 172.063 40.7926L171.7 41.8793C171.636 41.858 171.548 41.8313 171.434 41.7994C171.324 41.7674 171.178 41.7514 170.997 41.7514C170.582 41.7514 170.282 41.8562 170.097 42.0657C169.916 42.2752 169.825 42.5824 169.825 42.9872V52H168.568ZM176.406 52.1705C175.668 52.1705 175.02 51.9947 174.462 51.6431C173.908 51.2915 173.475 50.7997 173.162 50.1676C172.854 49.5355 172.699 48.7969 172.699 47.9517C172.699 47.0994 172.854 46.3555 173.162 45.7198C173.475 45.0842 173.908 44.5906 174.462 44.239C175.02 43.8874 175.668 43.7116 176.406 43.7116C177.145 43.7116 177.791 43.8874 178.345 44.239C178.903 44.5906 179.336 45.0842 179.645 45.7198C179.958 46.3555 180.114 47.0994 180.114 47.9517C180.114 48.7969 179.958 49.5355 179.645 50.1676C179.336 50.7997 178.903 51.2915 178.345 51.6431C177.791 51.9947 177.145 52.1705 176.406 52.1705ZM176.406 51.0412C176.968 51.0412 177.429 50.8974 177.791 50.6097C178.154 50.3221 178.422 49.9439 178.596 49.4751C178.77 49.0064 178.857 48.4986 178.857 47.9517C178.857 47.4048 178.77 46.8952 178.596 46.4229C178.422 45.9506 178.154 45.5689 177.791 45.2777C177.429 44.9865 176.968 44.8409 176.406 44.8409C175.845 44.8409 175.384 44.9865 175.021 45.2777C174.659 45.5689 174.391 45.9506 174.217 46.4229C174.043 46.8952 173.956 47.4048 173.956 47.9517C173.956 48.4986 174.043 49.0064 174.217 49.4751C174.391 49.9439 174.659 50.3221 175.021 50.6097C175.384 50.8974 175.845 51.0412 176.406 51.0412ZM182.033 52V43.8182H183.247V45.054H183.332C183.482 44.6491 183.752 44.3207 184.142 44.0685C184.533 43.8164 184.973 43.6903 185.463 43.6903C185.555 43.6903 185.671 43.6921 185.809 43.6957C185.948 43.6992 186.053 43.7045 186.124 43.7116V44.9901C186.081 44.9794 185.983 44.9634 185.831 44.9421C185.682 44.9173 185.524 44.9048 185.357 44.9048C184.959 44.9048 184.604 44.9883 184.291 45.1552C183.982 45.3185 183.737 45.5458 183.556 45.837C183.379 46.1246 183.29 46.4531 183.29 46.8224V52H182.033ZM187.614 52V43.8182H188.828V45.0966H188.935C189.105 44.6598 189.381 44.3207 189.76 44.0792C190.14 43.8342 190.597 43.7116 191.129 43.7116C191.669 43.7116 192.118 43.8342 192.477 44.0792C192.839 44.3207 193.122 44.6598 193.324 45.0966H193.409C193.619 44.674 193.933 44.3384 194.352 44.0898C194.771 43.8377 195.274 43.7116 195.86 43.7116C196.591 43.7116 197.189 43.9407 197.655 44.3988C198.12 44.8533 198.352 45.5618 198.352 46.5241V52H197.095V46.5241C197.095 45.9205 196.93 45.489 196.6 45.2298C196.27 44.9705 195.881 44.8409 195.433 44.8409C194.858 44.8409 194.412 45.0149 194.096 45.3629C193.78 45.7074 193.622 46.1442 193.622 46.6733V52H192.344V46.3963C192.344 45.9311 192.193 45.5565 191.891 45.2724C191.589 44.9847 191.2 44.8409 190.725 44.8409C190.398 44.8409 190.093 44.9279 189.808 45.1019C189.528 45.2759 189.301 45.5174 189.127 45.8263C188.956 46.1317 188.871 46.4851 188.871 46.8864V52H187.614ZM203.059 52.1918C202.54 52.1918 202.07 52.0941 201.647 51.8988C201.224 51.6999 200.889 51.4141 200.64 51.0412C200.392 50.6648 200.267 50.2102 200.267 49.6776C200.267 49.2088 200.36 48.8288 200.544 48.5376C200.729 48.2429 200.976 48.0121 201.285 47.8452C201.594 47.6783 201.935 47.554 202.308 47.4723C202.684 47.3871 203.062 47.3196 203.442 47.2699C203.939 47.206 204.342 47.158 204.651 47.1261C204.964 47.0906 205.191 47.032 205.333 46.9503C205.479 46.8686 205.552 46.7266 205.552 46.5241V46.4815C205.552 45.956 205.408 45.5476 205.12 45.2564C204.836 44.9652 204.404 44.8196 203.826 44.8196C203.226 44.8196 202.755 44.951 202.414 45.2138C202.073 45.4766 201.833 45.7571 201.695 46.0554L200.502 45.6293C200.715 45.1321 200.999 44.745 201.354 44.468C201.713 44.1875 202.103 43.9922 202.526 43.8821C202.952 43.7685 203.371 43.7116 203.783 43.7116C204.046 43.7116 204.348 43.7436 204.689 43.8075C205.033 43.8679 205.365 43.994 205.685 44.1857C206.008 44.3775 206.276 44.6669 206.489 45.054C206.702 45.4411 206.809 45.9595 206.809 46.6094V52H205.552V50.892H205.488C205.402 51.0696 205.26 51.2596 205.061 51.462C204.863 51.6644 204.598 51.8366 204.268 51.9787C203.938 52.1207 203.534 52.1918 203.059 52.1918ZM203.25 51.0625C203.748 51.0625 204.167 50.9648 204.507 50.7695C204.852 50.5742 205.111 50.3221 205.285 50.0131C205.463 49.7042 205.552 49.3793 205.552 49.0384V47.8878C205.498 47.9517 205.381 48.0103 205.2 48.0636C205.022 48.1133 204.816 48.1577 204.582 48.1967C204.351 48.2322 204.126 48.2642 203.906 48.2926C203.689 48.3175 203.513 48.3388 203.378 48.3565C203.052 48.3991 202.746 48.4684 202.462 48.5643C202.181 48.6566 201.954 48.7969 201.78 48.9851C201.61 49.1697 201.525 49.4219 201.525 49.7415C201.525 50.1783 201.686 50.5085 202.009 50.7322C202.336 50.9524 202.75 51.0625 203.25 51.0625ZM212.661 43.8182V44.8835H208.421V43.8182H212.661ZM209.657 41.858H210.914V49.6562C210.914 50.0114 210.966 50.2777 211.069 50.4553C211.175 50.6293 211.31 50.7464 211.473 50.8068C211.64 50.8636 211.816 50.892 212.001 50.892C212.139 50.892 212.253 50.8849 212.342 50.8707C212.43 50.853 212.502 50.8388 212.555 50.8281L212.81 51.9574C212.725 51.9893 212.606 52.0213 212.454 52.0533C212.301 52.0888 212.107 52.1065 211.873 52.1065C211.518 52.1065 211.17 52.0302 210.829 51.8775C210.492 51.7248 210.211 51.4922 209.987 51.1797C209.767 50.8672 209.657 50.473 209.657 49.9972V41.858ZM214.552 52V43.8182H215.809V52H214.552ZM215.192 42.4545C214.946 42.4545 214.735 42.3711 214.558 42.2042C214.384 42.0373 214.297 41.8366 214.297 41.6023C214.297 41.3679 214.384 41.1673 214.558 41.0004C214.735 40.8335 214.946 40.75 215.192 40.75C215.437 40.75 215.646 40.8335 215.82 41.0004C215.998 41.1673 216.086 41.3679 216.086 41.6023C216.086 41.8366 215.998 42.0373 215.82 42.2042C215.646 42.3711 215.437 42.4545 215.192 42.4545ZM221.436 52.1705C220.697 52.1705 220.049 51.9947 219.491 51.6431C218.938 51.2915 218.504 50.7997 218.192 50.1676C217.883 49.5355 217.728 48.7969 217.728 47.9517C217.728 47.0994 217.883 46.3555 218.192 45.7198C218.504 45.0842 218.938 44.5906 219.491 44.239C220.049 43.8874 220.697 43.7116 221.436 43.7116C222.174 43.7116 222.821 43.8874 223.375 44.239C223.932 44.5906 224.365 45.0842 224.674 45.7198C224.987 46.3555 225.143 47.0994 225.143 47.9517C225.143 48.7969 224.987 49.5355 224.674 50.1676C224.365 50.7997 223.932 51.2915 223.375 51.6431C222.821 51.9947 222.174 52.1705 221.436 52.1705ZM221.436 51.0412C221.997 51.0412 222.458 50.8974 222.821 50.6097C223.183 50.3221 223.451 49.9439 223.625 49.4751C223.799 49.0064 223.886 48.4986 223.886 47.9517C223.886 47.4048 223.799 46.8952 223.625 46.4229C223.451 45.9506 223.183 45.5689 222.821 45.2777C222.458 44.9865 221.997 44.8409 221.436 44.8409C220.875 44.8409 220.413 44.9865 220.051 45.2777C219.689 45.5689 219.42 45.9506 219.246 46.4229C219.072 46.8952 218.985 47.4048 218.985 47.9517C218.985 48.4986 219.072 49.0064 219.246 49.4751C219.42 49.9439 219.689 50.3221 220.051 50.6097C220.413 50.8974 220.875 51.0412 221.436 51.0412ZM228.319 47.0781V52H227.062V43.8182H228.277V45.0966H228.383C228.575 44.6811 228.866 44.3473 229.257 44.0952C229.647 43.8395 230.152 43.7116 230.769 43.7116C231.323 43.7116 231.808 43.8253 232.224 44.0526C232.639 44.2763 232.962 44.6172 233.193 45.0753C233.424 45.5298 233.539 46.1051 233.539 46.8011V52H232.282V46.8864C232.282 46.2436 232.115 45.7429 231.782 45.3842C231.448 45.022 230.99 44.8409 230.407 44.8409C230.006 44.8409 229.647 44.9279 229.331 45.1019C229.019 45.2759 228.772 45.5298 228.591 45.8636C228.41 46.1974 228.319 46.6023 228.319 47.0781ZM239.629 42.2628V41.0909H247.811V42.2628H244.381V52H243.059V42.2628H239.629ZM251.923 52.1705C251.135 52.1705 250.455 51.9964 249.883 51.6484C249.315 51.2969 248.876 50.8068 248.567 50.1783C248.262 49.5462 248.109 48.8111 248.109 47.973C248.109 47.1349 248.262 46.3963 248.567 45.7571C248.876 45.1143 249.306 44.6136 249.856 44.255C250.41 43.8928 251.057 43.7116 251.795 43.7116C252.221 43.7116 252.642 43.7827 253.058 43.9247C253.473 44.0668 253.851 44.2976 254.192 44.6172C254.533 44.9332 254.805 45.3523 255.007 45.8743C255.21 46.3963 255.311 47.0391 255.311 47.8026V48.3352H249.004V47.2486H254.033C254.033 46.7869 253.94 46.375 253.756 46.0128C253.574 45.6506 253.315 45.3647 252.978 45.1552C252.644 44.9457 252.25 44.8409 251.795 44.8409C251.295 44.8409 250.861 44.9652 250.496 45.2138C250.133 45.4588 249.855 45.7784 249.659 46.1726C249.464 46.5668 249.366 46.9893 249.366 47.4403V48.1648C249.366 48.7827 249.473 49.3065 249.686 49.7362C249.903 50.1623 250.203 50.4872 250.586 50.7109C250.97 50.9311 251.415 51.0412 251.923 51.0412C252.253 51.0412 252.552 50.995 252.818 50.9027C253.088 50.8068 253.321 50.6648 253.516 50.4766C253.711 50.2848 253.862 50.0469 253.969 49.7628L255.183 50.1037C255.055 50.5156 254.84 50.8778 254.539 51.1903C254.237 51.4993 253.864 51.7408 253.42 51.9148C252.976 52.0852 252.477 52.1705 251.923 52.1705ZM260.547 52.1705C259.78 52.1705 259.12 51.9893 258.566 51.6271C258.012 51.2649 257.585 50.766 257.287 50.1303C256.989 49.4947 256.84 48.7685 256.84 47.9517C256.84 47.1207 256.992 46.3874 257.298 45.7518C257.607 45.1126 258.036 44.6136 258.587 44.255C259.141 43.8928 259.787 43.7116 260.526 43.7116C261.101 43.7116 261.62 43.8182 262.081 44.0312C262.543 44.2443 262.921 44.5426 263.216 44.9261C263.51 45.3097 263.693 45.7571 263.764 46.2685H262.507C262.411 45.8956 262.198 45.5653 261.868 45.2777C261.541 44.9865 261.101 44.8409 260.547 44.8409C260.057 44.8409 259.627 44.9687 259.258 45.2244C258.892 45.4766 258.606 45.8335 258.4 46.2951C258.198 46.7532 258.097 47.2912 258.097 47.9091C258.097 48.5412 258.196 49.0916 258.395 49.5604C258.597 50.0291 258.882 50.3931 259.247 50.6523C259.617 50.9116 260.05 51.0412 260.547 51.0412C260.874 51.0412 261.17 50.9844 261.437 50.8707C261.703 50.7571 261.928 50.5938 262.113 50.3807C262.298 50.1676 262.429 49.9119 262.507 49.6136H263.764C263.693 50.0966 263.518 50.5316 263.237 50.9187C262.96 51.3022 262.593 51.6076 262.134 51.8349C261.68 52.0586 261.151 52.1705 260.547 52.1705ZM266.859 47.0781V52H265.602V41.0909H266.859V45.0966H266.966C267.158 44.674 267.445 44.3384 267.829 44.0898C268.216 43.8377 268.731 43.7116 269.373 43.7116C269.931 43.7116 270.419 43.8235 270.838 44.0472C271.257 44.2674 271.582 44.6065 271.813 45.0646C272.047 45.5192 272.165 46.098 272.165 46.8011V52H270.908V46.8864C270.908 46.2365 270.739 45.734 270.401 45.3789C270.068 45.0202 269.604 44.8409 269.011 44.8409C268.599 44.8409 268.23 44.9279 267.903 45.1019C267.58 45.2759 267.324 45.5298 267.136 45.8636C266.952 46.1974 266.859 46.6023 266.859 47.0781ZM275.722 47.0781V52H274.464V43.8182H275.679V45.0966H275.785C275.977 44.6811 276.268 44.3473 276.659 44.0952C277.05 43.8395 277.554 43.7116 278.172 43.7116C278.726 43.7116 279.211 43.8253 279.626 44.0526C280.041 44.2763 280.365 44.6172 280.595 45.0753C280.826 45.5298 280.942 46.1051 280.942 46.8011V52H279.685V46.8864C279.685 46.2436 279.518 45.7429 279.184 45.3842C278.85 45.022 278.392 44.8409 277.81 44.8409C277.408 44.8409 277.05 44.9279 276.734 45.1019C276.421 45.2759 276.174 45.5298 275.993 45.8636C275.812 46.1974 275.722 46.6023 275.722 47.0781ZM286.563 52.1705C285.824 52.1705 285.176 51.9947 284.618 51.6431C284.064 51.2915 283.631 50.7997 283.319 50.1676C283.01 49.5355 282.855 48.7969 282.855 47.9517C282.855 47.0994 283.01 46.3555 283.319 45.7198C283.631 45.0842 284.064 44.5906 284.618 44.239C285.176 43.8874 285.824 43.7116 286.563 43.7116C287.301 43.7116 287.948 43.8874 288.502 44.239C289.059 44.5906 289.492 45.0842 289.801 45.7198C290.114 46.3555 290.27 47.0994 290.27 47.9517C290.27 48.7969 290.114 49.5355 289.801 50.1676C289.492 50.7997 289.059 51.2915 288.502 51.6431C287.948 51.9947 287.301 52.1705 286.563 52.1705ZM286.563 51.0412C287.124 51.0412 287.585 50.8974 287.948 50.6097C288.31 50.3221 288.578 49.9439 288.752 49.4751C288.926 49.0064 289.013 48.4986 289.013 47.9517C289.013 47.4048 288.926 46.8952 288.752 46.4229C288.578 45.9506 288.31 45.5689 287.948 45.2777C287.585 44.9865 287.124 44.8409 286.563 44.8409C286.002 44.8409 285.54 44.9865 285.178 45.2777C284.816 45.5689 284.547 45.9506 284.373 46.4229C284.199 46.8952 284.112 47.4048 284.112 47.9517C284.112 48.4986 284.199 49.0064 284.373 49.4751C284.547 49.9439 284.816 50.3221 285.178 50.6097C285.54 50.8974 286.002 51.0412 286.563 51.0412ZM293.446 41.0909V52H292.189V41.0909H293.446ZM299.072 52.1705C298.334 52.1705 297.686 51.9947 297.128 51.6431C296.574 51.2915 296.141 50.7997 295.828 50.1676C295.52 49.5355 295.365 48.7969 295.365 47.9517C295.365 47.0994 295.52 46.3555 295.828 45.7198C296.141 45.0842 296.574 44.5906 297.128 44.239C297.686 43.8874 298.334 43.7116 299.072 43.7116C299.811 43.7116 300.457 43.8874 301.011 44.239C301.569 44.5906 302.002 45.0842 302.311 45.7198C302.624 46.3555 302.78 47.0994 302.78 47.9517C302.78 48.7969 302.624 49.5355 302.311 50.1676C302.002 50.7997 301.569 51.2915 301.011 51.6431C300.457 51.9947 299.811 52.1705 299.072 52.1705ZM299.072 51.0412C299.634 51.0412 300.095 50.8974 300.457 50.6097C300.82 50.3221 301.088 49.9439 301.262 49.4751C301.436 49.0064 301.523 48.4986 301.523 47.9517C301.523 47.4048 301.436 46.8952 301.262 46.4229C301.088 45.9506 300.82 45.5689 300.457 45.2777C300.095 44.9865 299.634 44.8409 299.072 44.8409C298.511 44.8409 298.05 44.9865 297.688 45.2777C297.325 45.5689 297.057 45.9506 296.883 46.4229C296.709 46.8952 296.622 47.4048 296.622 47.9517C296.622 48.4986 296.709 49.0064 296.883 49.4751C297.057 49.9439 297.325 50.3221 297.688 50.6097C298.05 50.8974 298.511 51.0412 299.072 51.0412ZM308.001 55.2386C307.394 55.2386 306.872 55.1605 306.435 55.0043C305.999 54.8516 305.635 54.6491 305.343 54.397C305.056 54.1484 304.827 53.8821 304.656 53.598L305.658 52.8949C305.771 53.044 305.915 53.2145 306.089 53.4062C306.263 53.6016 306.501 53.7702 306.803 53.9123C307.108 54.0579 307.508 54.1307 308.001 54.1307C308.662 54.1307 309.207 53.9709 309.637 53.6513C310.066 53.3317 310.281 52.831 310.281 52.1491V50.4872H310.175C310.082 50.6364 309.951 50.821 309.78 51.0412C309.614 51.2578 309.372 51.4513 309.056 51.6218C308.744 51.7887 308.321 51.8722 307.788 51.8722C307.128 51.8722 306.535 51.7159 306.009 51.4034C305.487 51.0909 305.073 50.6364 304.768 50.0398C304.466 49.4432 304.315 48.7187 304.315 47.8665C304.315 47.0284 304.463 46.2987 304.757 45.6772C305.052 45.0522 305.462 44.5692 305.988 44.2283C306.513 43.8839 307.121 43.7116 307.81 43.7116C308.342 43.7116 308.765 43.8004 309.077 43.978C309.393 44.152 309.635 44.3509 309.802 44.5746C309.972 44.7947 310.104 44.9759 310.196 45.1179H310.324V43.8182H311.538V52.2344C311.538 52.9375 311.378 53.5092 311.059 53.9496C310.743 54.3935 310.317 54.7184 309.78 54.9244C309.248 55.1339 308.655 55.2386 308.001 55.2386ZM307.959 50.7429C308.463 50.7429 308.889 50.6275 309.237 50.3967C309.585 50.1658 309.85 49.8338 310.031 49.4006C310.212 48.9673 310.302 48.4489 310.302 47.8452C310.302 47.2557 310.214 46.7354 310.036 46.2844C309.859 45.8335 309.596 45.4801 309.248 45.2244C308.9 44.9687 308.47 44.8409 307.959 44.8409C307.426 44.8409 306.982 44.9759 306.627 45.2457C306.275 45.5156 306.011 45.8778 305.833 46.3324C305.659 46.7869 305.572 47.2912 305.572 47.8452C305.572 48.4134 305.661 48.9158 305.839 49.3526C306.02 49.7859 306.286 50.1268 306.638 50.3754C306.993 50.6204 307.433 50.7429 307.959 50.7429ZM313.839 52V43.8182H315.097V52H313.839ZM314.479 42.4545C314.234 42.4545 314.022 42.3711 313.845 42.2042C313.671 42.0373 313.584 41.8366 313.584 41.6023C313.584 41.3679 313.671 41.1673 313.845 41.0004C314.022 40.8335 314.234 40.75 314.479 40.75C314.724 40.75 314.933 40.8335 315.107 41.0004C315.285 41.1673 315.374 41.3679 315.374 41.6023C315.374 41.8366 315.285 42.0373 315.107 42.2042C314.933 42.3711 314.724 42.4545 314.479 42.4545ZM320.829 52.1705C320.041 52.1705 319.361 51.9964 318.789 51.6484C318.221 51.2969 317.783 50.8068 317.474 50.1783C317.168 49.5462 317.015 48.8111 317.015 47.973C317.015 47.1349 317.168 46.3963 317.474 45.7571C317.783 45.1143 318.212 44.6136 318.763 44.255C319.317 43.8928 319.963 43.7116 320.702 43.7116C321.128 43.7116 321.548 43.7827 321.964 43.9247C322.379 44.0668 322.758 44.2976 323.099 44.6172C323.439 44.9332 323.711 45.3523 323.914 45.8743C324.116 46.3963 324.217 47.0391 324.217 47.8026V48.3352H317.91V47.2486H322.939C322.939 46.7869 322.846 46.375 322.662 46.0128C322.481 45.6506 322.221 45.3647 321.884 45.1552C321.55 44.9457 321.156 44.8409 320.702 44.8409C320.201 44.8409 319.768 44.9652 319.402 45.2138C319.04 45.4588 318.761 45.7784 318.566 46.1726C318.37 46.5668 318.273 46.9893 318.273 47.4403V48.1648C318.273 48.7827 318.379 49.3065 318.592 49.7362C318.809 50.1623 319.109 50.4872 319.492 50.7109C319.876 50.9311 320.322 51.0412 320.829 51.0412C321.16 51.0412 321.458 50.995 321.724 50.9027C321.994 50.8068 322.227 50.6648 322.422 50.4766C322.617 50.2848 322.768 50.0469 322.875 49.7628L324.089 50.1037C323.961 50.5156 323.747 50.8778 323.445 51.1903C323.143 51.4993 322.77 51.7408 322.326 51.9148C321.882 52.0852 321.383 52.1705 320.829 52.1705ZM331.925 45.6506L330.796 45.9702C330.725 45.782 330.62 45.5991 330.481 45.4215C330.346 45.2404 330.162 45.0913 329.927 44.9741C329.693 44.8569 329.393 44.7983 329.027 44.7983C328.526 44.7983 328.109 44.9137 327.775 45.1445C327.445 45.3718 327.28 45.6612 327.28 46.0128C327.28 46.3253 327.394 46.5721 327.621 46.7532C327.848 46.9343 328.203 47.0852 328.686 47.206L329.901 47.5043C330.632 47.6818 331.177 47.9535 331.536 48.3192C331.895 48.6815 332.074 49.1484 332.074 49.7202C332.074 50.1889 331.939 50.608 331.669 50.9773C331.403 51.3466 331.03 51.6378 330.551 51.8509C330.071 52.0639 329.514 52.1705 328.878 52.1705C328.044 52.1705 327.353 51.9893 326.806 51.6271C326.259 51.2649 325.913 50.7358 325.767 50.0398L326.96 49.7415C327.074 50.1818 327.289 50.5121 327.605 50.7322C327.925 50.9524 328.342 51.0625 328.857 51.0625C329.443 51.0625 329.908 50.9382 330.252 50.6896C330.6 50.4375 330.774 50.1357 330.774 49.7841C330.774 49.5 330.675 49.2621 330.476 49.0703C330.277 48.875 329.972 48.7294 329.56 48.6335L328.196 48.3139C327.447 48.1364 326.896 47.8612 326.545 47.4883C326.197 47.1119 326.023 46.6413 326.023 46.0767C326.023 45.6151 326.153 45.2067 326.412 44.8516C326.675 44.4964 327.031 44.2177 327.482 44.0153C327.937 43.8129 328.452 43.7116 329.027 43.7116C329.837 43.7116 330.472 43.8892 330.934 44.2443C331.399 44.5994 331.73 45.0682 331.925 45.6506Z" fill="white"/>
</g>
<defs>
<filter id="filter0_d_12_147" x="3.50317" y="3.00201" width="141.547" height="73" filterUnits="userSpaceOnUse" color-interpolation-filters="sRGB">
<feFlood flood-opacity="0" result="BackgroundImageFix"/>
<feColorMatrix in="SourceAlpha" type="matrix" values="0 0 0 0 0 0 0 0 0 0 0 0 0 0 0 0 0 0 127 0" result="hardAlpha"/>
<feOffset dx="2" dy="2"/>
<feGaussianBlur stdDeviation="3"/>
<feColorMatrix type="matrix" values="0 0 0 0 0 0 0 0 0 0 0 0 0 0 0 0 0 0 0.141 0"/>
<feBlend mode="normal" in2="BackgroundImageFix" result="effect1_dropShadow_12_147"/>
<feBlend mode="normal" in="SourceGraphic" in2="effect1_dropShadow_12_147" result="shape"/>
</filter>
<clipPath id="clip0_12_147">
<rect width="338" height="79" fill="white"/>
</clipPath>
</defs>
</svg>
