<svg width="333" height="79" viewBox="0 0 333 79" fill="none" xmlns="http://www.w3.org/2000/svg">
<g clip-path="url(#clip0_12_123)">
<g filter="url(#filter0_d_12_123)">
<path d="M103.146 8.00201H39.2688C22.2079 8.00201 8.37732 21.2096 8.37732 37.502C8.37732 53.7944 22.2079 67.002 39.2688 67.002H103.146C120.207 67.002 134.038 53.7944 134.038 37.502C134.038 21.2096 120.207 8.00201 103.146 8.00201Z" stroke="black" stroke-width="2"/>
</g>
<path d="M102.098 63.0011C98.3957 63.0104 94.7269 62.3311 91.2965 61.0011C88.0185 59.7325 85.0246 57.8774 82.4761 55.5353C79.956 53.2321 77.9354 50.4773 76.5293 47.4288C75.0861 44.3018 74.3434 40.9213 74.349 37.504C74.3434 34.0867 75.0861 30.7063 76.5293 27.5792C77.9354 24.5307 79.956 21.7759 82.4761 19.4728C85.0246 17.1306 88.0185 15.2755 91.2965 14.0069C94.7269 12.677 98.3957 11.9977 102.098 12.0069C105.8 11.9977 109.469 12.677 112.9 14.0069C116.178 15.2756 119.172 17.1307 121.721 19.4728C124.241 21.7758 126.263 24.5306 127.669 27.5792C129.113 30.7061 129.856 34.0866 129.85 37.504C129.856 40.9214 129.113 44.3019 127.669 47.4288C126.263 50.4774 124.241 53.2322 121.721 55.5353C119.172 57.8773 116.178 59.7324 112.9 61.0011C109.469 62.331 105.8 63.0103 102.098 63.0011ZM91.5331 28.0011C90.2654 27.9598 89.002 28.1607 87.8166 28.5919C86.6313 29.0231 85.5479 29.6756 84.6303 30.5118C83.7126 31.348 82.9791 32.3515 82.4725 33.462C81.966 34.5725 81.6966 35.7674 81.6804 36.9786C81.6972 38.1958 81.9682 39.3979 82.4776 40.5138C82.9871 41.6296 83.7246 42.6375 84.647 43.4776C85.5694 44.3178 86.6581 44.9732 87.8494 45.4064C89.0406 45.8395 90.3104 46.0416 91.5844 46.0001C93.7412 46.0545 95.8538 45.4099 97.5785 44.172C99.3032 42.9341 100.538 41.1753 101.083 39.1817H96.0568C95.6963 40.046 95.0726 40.7875 94.2663 41.3097C93.4601 41.8318 92.5083 42.1113 91.5341 42.1114C90.8334 42.1188 90.1395 41.9793 89.5007 41.7042C88.8618 41.4291 88.2936 41.0241 87.8356 40.5177C86.9556 39.521 86.475 38.2588 86.4794 36.9552C86.4785 35.6936 86.9402 34.4715 87.7843 33.5011C88.2398 32.9844 88.8106 32.5713 89.455 32.2931C90.0994 32.0148 90.8009 31.878 91.5079 31.8927C92.498 31.8943 93.4641 32.1847 94.2768 32.7247C95.0895 33.2647 95.7101 34.0291 96.0558 34.9151H101.082C100.681 33.1832 99.7173 31.6171 98.3282 30.4396C96.472 28.8284 94.0411 27.9564 91.5331 28.0011ZM114.037 32.2208V45.6739H118.835V32.2208H122.519V28.3282H110.327V32.2208H114.037ZM103.574 28.3282V45.6739H108.372V28.3282H103.574Z" fill="black"/>
<path d="M35.3954 34.171C35.4232 33.2048 35.0785 32.2625 34.4268 31.523C33.9131 31.0225 33.2965 30.6288 32.6159 30.3667C31.9352 30.1046 31.2052 29.9798 30.4716 30C28.0191 30 25.3499 31.433 25.3499 33.953C25.3499 36.473 27.9008 37.417 28.9281 37.798C31.1826 38.668 31.7952 38.886 31.7952 39.775C31.7907 39.949 31.7503 40.1205 31.6762 40.2795C31.6021 40.4385 31.4959 40.582 31.3635 40.7017C31.2312 40.8214 31.0754 40.915 30.9051 40.977C30.7347 41.039 30.5533 41.0682 30.3711 41.063C29.8967 41.063 28.8485 40.791 28.8485 39.231H25.1321V39.666C25.1321 41.389 26.1792 43.928 30.4119 43.928C34.2864 43.928 35.5137 41.77 35.5137 39.811C35.5137 38.251 34.8215 37.091 32.0926 35.966C29.4621 34.878 29.0673 34.715 29.0673 33.917C29.0928 33.615 29.2422 33.3349 29.4832 33.1378C29.7241 32.9407 30.0369 32.8426 30.3533 32.865C31.5052 32.865 31.6193 33.717 31.6978 34.171H35.3954ZM41.0909 30.254H37.8081V33.609H36.1871V35.89H37.8081V43.67H41.0909V35.89H42.6732V33.609H41.0909V30.254ZM54.2623 33.609H50.9794V39.14C50.9794 40.74 50.0495 41.189 49.1007 41.189C47.3405 41.189 47.3405 39.865 47.3405 39.176V33.609H44.0576V39.63C43.9745 40.1926 44.0232 40.7659 44.2001 41.3084C44.3771 41.8509 44.6779 42.3491 45.0809 42.7672C45.4839 43.1852 45.979 43.5126 46.5306 43.7258C47.0821 43.939 47.6763 44.0327 48.2703 44C48.8365 44.0599 49.4086 43.959 49.915 43.71C50.4214 43.461 50.8397 43.0749 51.1176 42.6H51.1574V43.67H54.2623V33.609ZM68.066 30.254H64.7832V34.461C64.3628 34.058 63.859 33.7431 63.3041 33.5365C62.7491 33.3299 62.1551 33.236 61.56 33.261C60.8286 33.2499 60.1026 33.3819 59.4267 33.6489C58.7508 33.9159 58.1393 34.3122 57.6299 34.8134C57.1204 35.3146 56.7238 35.9101 56.4645 36.5632C56.2052 37.2163 56.0886 37.9132 56.122 38.611C56.0836 39.3164 56.1985 40.0218 56.4593 40.6828C56.7201 41.3438 57.1213 41.9462 57.6376 42.452C58.1539 42.9578 58.7742 43.3562 59.4595 43.6221C60.1448 43.888 60.8802 44.0156 61.6197 43.997C62.2488 44.0683 62.8865 43.9751 63.4645 43.7273C64.0425 43.4795 64.5392 43.0864 64.9015 42.59H64.9413V43.678H68.066V30.254ZM59.4007 38.596C59.4373 37.9158 59.746 37.275 60.2631 36.806C60.7802 36.3369 61.4662 36.0753 62.1794 36.0753C62.8926 36.0753 63.5786 36.3369 64.0956 36.806C64.6127 37.275 64.9214 37.9158 64.958 38.596C64.9639 38.9455 64.8947 39.2923 64.7546 39.6152C64.6145 39.9381 64.4066 40.2301 64.1437 40.4732C63.8808 40.7164 63.5684 40.9054 63.226 41.0287C62.8835 41.152 62.5182 41.2069 62.1527 41.19C61.79 41.2053 61.428 41.149 61.0892 41.0245C60.7505 40.9 60.4422 40.71 60.1839 40.4665C59.9256 40.223 59.7227 39.9312 59.5879 39.6093C59.4531 39.2874 59.3894 38.9425 59.4007 38.596Z" fill="black"/>
<path d="M159.127 24.8182C159.063 24.2784 158.803 23.8594 158.349 23.5611C157.894 23.2628 157.337 23.1136 156.676 23.1136C156.193 23.1136 155.771 23.1918 155.408 23.348C155.05 23.5043 154.769 23.7191 154.567 23.9925C154.368 24.266 154.269 24.5767 154.269 24.9247C154.269 25.2159 154.338 25.4663 154.476 25.6758C154.618 25.8817 154.799 26.054 155.02 26.1925C155.24 26.3274 155.471 26.4393 155.712 26.5281C155.954 26.6133 156.176 26.6825 156.378 26.7358L157.486 27.0341C157.77 27.1087 158.086 27.2116 158.434 27.343C158.786 27.4744 159.121 27.6538 159.441 27.881C159.764 28.1048 160.03 28.3924 160.24 28.744C160.449 29.0955 160.554 29.527 160.554 30.0384C160.554 30.6278 160.4 31.1605 160.091 31.6364C159.785 32.1122 159.338 32.4904 158.748 32.771C158.162 33.0515 157.45 33.1918 156.612 33.1918C155.831 33.1918 155.155 33.0657 154.583 32.8136C154.015 32.5614 153.567 32.2099 153.241 31.7589C152.917 31.3079 152.734 30.7841 152.692 30.1875H154.056C154.091 30.5994 154.23 30.9403 154.471 31.2102C154.716 31.4766 155.025 31.6754 155.398 31.8068C155.774 31.9347 156.179 31.9986 156.612 31.9986C157.117 31.9986 157.569 31.9169 157.971 31.7536C158.372 31.5866 158.69 31.3558 158.924 31.0611C159.158 30.7628 159.276 30.4148 159.276 30.017C159.276 29.6548 159.174 29.3601 158.972 29.1328C158.77 28.9055 158.503 28.7209 158.173 28.5788C157.843 28.4368 157.486 28.3125 157.102 28.206L155.76 27.8224C154.908 27.5774 154.233 27.2276 153.736 26.7731C153.239 26.3185 152.99 25.7237 152.99 24.9886C152.99 24.3778 153.155 23.8452 153.486 23.3906C153.819 22.9325 154.267 22.5774 154.828 22.3253C155.393 22.0696 156.023 21.9418 156.719 21.9418C157.422 21.9418 158.047 22.0678 158.594 22.32C159.141 22.5685 159.574 22.9094 159.894 23.3427C160.217 23.7759 160.387 24.2678 160.405 24.8182H159.127ZM166.114 24.8182V25.8835H161.874V24.8182H166.114ZM163.11 22.858H164.367V30.6562C164.367 31.0114 164.418 31.2777 164.521 31.4553C164.628 31.6293 164.763 31.7464 164.926 31.8068C165.093 31.8636 165.269 31.892 165.453 31.892C165.592 31.892 165.705 31.8849 165.794 31.8707C165.883 31.853 165.954 31.8388 166.007 31.8281L166.263 32.9574C166.178 32.9893 166.059 33.0213 165.906 33.0533C165.753 33.0888 165.56 33.1065 165.325 33.1065C164.97 33.1065 164.622 33.0302 164.281 32.8775C163.944 32.7248 163.664 32.4922 163.44 32.1797C163.22 31.8672 163.11 31.473 163.11 30.9972V22.858ZM173.161 29.6548V24.8182H174.418V33H173.161V31.6151H173.076C172.884 32.0305 172.586 32.3839 172.181 32.6751C171.776 32.9627 171.265 33.1065 170.647 33.1065C170.135 33.1065 169.681 32.9947 169.283 32.771C168.885 32.5437 168.573 32.2028 168.346 31.7482C168.118 31.2901 168.005 30.7131 168.005 30.017V24.8182H169.262V29.9318C169.262 30.5284 169.429 31.0043 169.763 31.3594C170.1 31.7145 170.53 31.892 171.052 31.892C171.364 31.892 171.682 31.8121 172.005 31.6523C172.332 31.4925 172.605 31.2475 172.825 30.9173C173.049 30.587 173.161 30.1662 173.161 29.6548ZM179.81 33.1705C179.128 33.1705 178.526 32.9982 178.004 32.6538C177.482 32.3058 177.074 31.8157 176.779 31.1836C176.484 30.5479 176.337 29.7969 176.337 28.9304C176.337 28.071 176.484 27.3253 176.779 26.6932C177.074 26.0611 177.484 25.5728 178.01 25.2283C178.535 24.8839 179.143 24.7116 179.831 24.7116C180.364 24.7116 180.785 24.8004 181.094 24.978C181.406 25.152 181.644 25.3509 181.808 25.5746C181.975 25.7947 182.104 25.9759 182.196 26.1179H182.303V22.0909H183.56V33H182.346V31.7429H182.196C182.104 31.892 181.973 32.0803 181.802 32.3075C181.632 32.5312 181.389 32.7319 181.073 32.9094C180.757 33.0835 180.336 33.1705 179.81 33.1705ZM179.981 32.0412C180.485 32.0412 180.911 31.9098 181.259 31.647C181.607 31.3807 181.872 31.0131 182.053 30.5444C182.234 30.0721 182.324 29.527 182.324 28.9091C182.324 28.2983 182.236 27.7638 182.058 27.3058C181.88 26.8441 181.618 26.4854 181.27 26.2298C180.922 25.9705 180.492 25.8409 179.981 25.8409C179.448 25.8409 179.004 25.9776 178.649 26.2511C178.297 26.521 178.033 26.8885 177.855 27.3537C177.681 27.8153 177.594 28.3338 177.594 28.9091C177.594 29.4915 177.683 30.0206 177.861 30.4964C178.042 30.9687 178.308 31.3452 178.66 31.6257C179.015 31.9027 179.455 32.0412 179.981 32.0412ZM189.467 33.1705C188.679 33.1705 187.999 32.9964 187.427 32.6484C186.859 32.2969 186.421 31.8068 186.112 31.1783C185.806 30.5462 185.654 29.8111 185.654 28.973C185.654 28.1349 185.806 27.3963 186.112 26.7571C186.421 26.1143 186.85 25.6136 187.401 25.255C187.955 24.8928 188.601 24.7116 189.34 24.7116C189.766 24.7116 190.187 24.7827 190.602 24.9247C191.018 25.0668 191.396 25.2976 191.737 25.6172C192.078 25.9332 192.349 26.3523 192.552 26.8743C192.754 27.3963 192.855 28.0391 192.855 28.8026V29.3352H186.548V28.2486H191.577C191.577 27.7869 191.484 27.375 191.3 27.0128C191.119 26.6506 190.859 26.3647 190.522 26.1552C190.188 25.9457 189.794 25.8409 189.34 25.8409C188.839 25.8409 188.406 25.9652 188.04 26.2138C187.678 26.4588 187.399 26.7784 187.204 27.1726C187.008 27.5668 186.911 27.9893 186.911 28.4403V29.1648C186.911 29.7827 187.017 30.3065 187.23 30.7362C187.447 31.1623 187.747 31.4872 188.13 31.7109C188.514 31.9311 188.96 32.0412 189.467 32.0412C189.798 32.0412 190.096 31.995 190.362 31.9027C190.632 31.8068 190.865 31.6648 191.06 31.4766C191.255 31.2848 191.406 31.0469 191.513 30.7628L192.727 31.1037C192.6 31.5156 192.385 31.8778 192.083 32.1903C191.781 32.4993 191.408 32.7408 190.964 32.9148C190.52 33.0852 190.021 33.1705 189.467 33.1705ZM196.025 28.0781V33H194.768V24.8182H195.982V26.0966H196.089C196.28 25.6811 196.571 25.3473 196.962 25.0952C197.353 24.8395 197.857 24.7116 198.475 24.7116C199.029 24.7116 199.514 24.8253 199.929 25.0526C200.345 25.2763 200.668 25.6172 200.899 26.0753C201.129 26.5298 201.245 27.1051 201.245 27.8011V33H199.988V27.8864C199.988 27.2436 199.821 26.7429 199.487 26.3842C199.153 26.022 198.695 25.8409 198.113 25.8409C197.711 25.8409 197.353 25.9279 197.037 26.1019C196.724 26.2759 196.477 26.5298 196.296 26.8636C196.115 27.1974 196.025 27.6023 196.025 28.0781ZM207.1 24.8182V25.8835H202.86V24.8182H207.1ZM204.096 22.858H205.353V30.6562C205.353 31.0114 205.404 31.2777 205.507 31.4553C205.614 31.6293 205.749 31.7464 205.912 31.8068C206.079 31.8636 206.255 31.892 206.44 31.892C206.578 31.892 206.692 31.8849 206.781 31.8707C206.869 31.853 206.94 31.8388 206.994 31.8281L207.249 32.9574C207.164 32.9893 207.045 33.0213 206.892 33.0533C206.74 33.0888 206.546 33.1065 206.312 33.1065C205.957 33.1065 205.609 33.0302 205.268 32.8775C204.93 32.7248 204.65 32.4922 204.426 32.1797C204.206 31.8672 204.096 31.473 204.096 30.9972V22.858ZM222.159 25.5H220.838C220.76 25.12 220.623 24.7862 220.428 24.4986C220.236 24.2109 220.001 23.9695 219.724 23.7741C219.451 23.5753 219.147 23.4261 218.814 23.3267C218.48 23.2273 218.132 23.1776 217.77 23.1776C217.109 23.1776 216.511 23.3445 215.974 23.6783C215.442 24.0121 215.017 24.5039 214.701 25.1538C214.389 25.8036 214.233 26.6009 214.233 27.5455C214.233 28.4901 214.389 29.2873 214.701 29.9371C215.017 30.587 215.442 31.0788 215.974 31.4126C216.511 31.7464 217.109 31.9134 217.77 31.9134C218.132 31.9134 218.48 31.8636 218.814 31.7642C219.147 31.6648 219.451 31.5174 219.724 31.3221C220.001 31.1232 220.236 30.88 220.428 30.5923C220.623 30.3011 220.76 29.9673 220.838 29.5909H222.159C222.059 30.1484 221.878 30.6474 221.615 31.0877C221.353 31.5281 221.026 31.9027 220.635 32.2116C220.245 32.517 219.806 32.7496 219.32 32.9094C218.837 33.0692 218.32 33.1491 217.77 33.1491C216.839 33.1491 216.012 32.9219 215.287 32.4673C214.563 32.0128 213.993 31.3665 213.577 30.5284C213.162 29.6903 212.954 28.696 212.954 27.5455C212.954 26.3949 213.162 25.4006 213.577 24.5625C213.993 23.7244 214.563 23.0781 215.287 22.6236C216.012 22.169 216.839 21.9418 217.77 21.9418C218.32 21.9418 218.837 22.0217 219.32 22.1815C219.806 22.3413 220.245 22.5756 220.635 22.8846C221.026 23.19 221.353 23.5629 221.615 24.0032C221.878 24.44 222.059 24.9389 222.159 25.5ZM227.553 33.1705C226.765 33.1705 226.085 32.9964 225.513 32.6484C224.945 32.2969 224.507 31.8068 224.198 31.1783C223.892 30.5462 223.739 29.8111 223.739 28.973C223.739 28.1349 223.892 27.3963 224.198 26.7571C224.507 26.1143 224.936 25.6136 225.487 25.255C226.041 24.8928 226.687 24.7116 227.426 24.7116C227.852 24.7116 228.272 24.7827 228.688 24.9247C229.103 25.0668 229.482 25.2976 229.823 25.6172C230.163 25.9332 230.435 26.3523 230.638 26.8743C230.84 27.3963 230.941 28.0391 230.941 28.8026V29.3352H224.634V28.2486H229.663C229.663 27.7869 229.57 27.375 229.386 27.0128C229.205 26.6506 228.945 26.3647 228.608 26.1552C228.274 25.9457 227.88 25.8409 227.426 25.8409C226.925 25.8409 226.492 25.9652 226.126 26.2138C225.764 26.4588 225.485 26.7784 225.29 27.1726C225.094 27.5668 224.997 27.9893 224.997 28.4403V29.1648C224.997 29.7827 225.103 30.3065 225.316 30.7362C225.533 31.1623 225.833 31.4872 226.216 31.7109C226.6 31.9311 227.046 32.0412 227.553 32.0412C227.884 32.0412 228.182 31.995 228.448 31.9027C228.718 31.8068 228.951 31.6648 229.146 31.4766C229.341 31.2848 229.492 31.0469 229.599 30.7628L230.813 31.1037C230.685 31.5156 230.471 31.8778 230.169 32.1903C229.867 32.4993 229.494 32.7408 229.05 32.9148C228.606 33.0852 228.107 33.1705 227.553 33.1705ZM234.111 28.0781V33H232.853V24.8182H234.068V26.0966H234.174C234.366 25.6811 234.657 25.3473 235.048 25.0952C235.439 24.8395 235.943 24.7116 236.561 24.7116C237.115 24.7116 237.6 24.8253 238.015 25.0526C238.431 25.2763 238.754 25.6172 238.984 26.0753C239.215 26.5298 239.331 27.1051 239.331 27.8011V33H238.074V27.8864C238.074 27.2436 237.907 26.7429 237.573 26.3842C237.239 26.022 236.781 25.8409 236.199 25.8409C235.797 25.8409 235.439 25.9279 235.123 26.1019C234.81 26.2759 234.563 26.5298 234.382 26.8636C234.201 27.1974 234.111 27.6023 234.111 28.0781ZM245.186 24.8182V25.8835H240.946V24.8182H245.186ZM242.182 22.858H243.439V30.6562C243.439 31.0114 243.49 31.2777 243.593 31.4553C243.7 31.6293 243.835 31.7464 243.998 31.8068C244.165 31.8636 244.341 31.892 244.526 31.892C244.664 31.892 244.778 31.8849 244.866 31.8707C244.955 31.853 245.026 31.8388 245.08 31.8281L245.335 32.9574C245.25 32.9893 245.131 33.0213 244.978 33.0533C244.826 33.0888 244.632 33.1065 244.398 33.1065C244.043 33.1065 243.695 33.0302 243.354 32.8775C243.016 32.7248 242.736 32.4922 242.512 32.1797C242.292 31.8672 242.182 31.473 242.182 30.9972V22.858ZM250.42 33.1705C249.631 33.1705 248.951 32.9964 248.379 32.6484C247.811 32.2969 247.373 31.8068 247.064 31.1783C246.758 30.5462 246.606 29.8111 246.606 28.973C246.606 28.1349 246.758 27.3963 247.064 26.7571C247.373 26.1143 247.802 25.6136 248.353 25.255C248.907 24.8928 249.553 24.7116 250.292 24.7116C250.718 24.7116 251.139 24.7827 251.554 24.9247C251.97 25.0668 252.348 25.2976 252.689 25.6172C253.03 25.9332 253.301 26.3523 253.504 26.8743C253.706 27.3963 253.807 28.0391 253.807 28.8026V29.3352H247.501V28.2486H252.529C252.529 27.7869 252.437 27.375 252.252 27.0128C252.071 26.6506 251.812 26.3647 251.474 26.1552C251.14 25.9457 250.746 25.8409 250.292 25.8409C249.791 25.8409 249.358 25.9652 248.992 26.2138C248.63 26.4588 248.351 26.7784 248.156 27.1726C247.96 27.5668 247.863 27.9893 247.863 28.4403V29.1648C247.863 29.7827 247.969 30.3065 248.182 30.7362C248.399 31.1623 248.699 31.4872 249.083 31.7109C249.466 31.9311 249.912 32.0412 250.42 32.0412C250.75 32.0412 251.048 31.995 251.314 31.9027C251.584 31.8068 251.817 31.6648 252.012 31.4766C252.208 31.2848 252.359 31.0469 252.465 30.7628L253.68 31.1037C253.552 31.5156 253.337 31.8778 253.035 32.1903C252.733 32.4993 252.36 32.7408 251.916 32.9148C251.473 33.0852 250.974 33.1705 250.42 33.1705ZM255.72 33V24.8182H256.934V26.054H257.019C257.169 25.6491 257.438 25.3207 257.829 25.0685C258.22 24.8164 258.66 24.6903 259.15 24.6903C259.242 24.6903 259.358 24.6921 259.496 24.6957C259.635 24.6992 259.74 24.7045 259.811 24.7116V25.9901C259.768 25.9794 259.67 25.9634 259.518 25.9421C259.368 25.9173 259.21 25.9048 259.044 25.9048C258.646 25.9048 258.291 25.9883 257.978 26.1552C257.669 26.3185 257.424 26.5458 257.243 26.837C257.066 27.1246 256.977 27.4531 256.977 27.8224V33H255.72ZM268.843 33.1705C268.105 33.1705 267.457 32.9947 266.899 32.6431C266.345 32.2915 265.912 31.7997 265.599 31.1676C265.29 30.5355 265.136 29.7969 265.136 28.9517C265.136 28.0994 265.29 27.3555 265.599 26.7198C265.912 26.0842 266.345 25.5906 266.899 25.239C267.457 24.8874 268.105 24.7116 268.843 24.7116C269.582 24.7116 270.228 24.8874 270.782 25.239C271.34 25.5906 271.773 26.0842 272.082 26.7198C272.394 27.3555 272.551 28.0994 272.551 28.9517C272.551 29.7969 272.394 30.5355 272.082 31.1676C271.773 31.7997 271.34 32.2915 270.782 32.6431C270.228 32.9947 269.582 33.1705 268.843 33.1705ZM268.843 32.0412C269.404 32.0412 269.866 31.8974 270.228 31.6097C270.59 31.3221 270.859 30.9439 271.033 30.4751C271.207 30.0064 271.294 29.4986 271.294 28.9517C271.294 28.4048 271.207 27.8952 271.033 27.4229C270.859 26.9506 270.59 26.5689 270.228 26.2777C269.866 25.9865 269.404 25.8409 268.843 25.8409C268.282 25.8409 267.821 25.9865 267.458 26.2777C267.096 26.5689 266.828 26.9506 266.654 27.4229C266.48 27.8952 266.393 28.4048 266.393 28.9517C266.393 29.4986 266.48 30.0064 266.654 30.4751C266.828 30.9439 267.096 31.3221 267.458 31.6097C267.821 31.8974 268.282 32.0412 268.843 32.0412ZM278.113 24.8182V25.8835H273.703V24.8182H278.113ZM275.024 33V23.6889C275.024 23.2202 275.134 22.8295 275.354 22.517C275.574 22.2045 275.86 21.9702 276.211 21.8139C276.563 21.6577 276.934 21.5795 277.325 21.5795C277.634 21.5795 277.886 21.6044 278.081 21.6541C278.276 21.7038 278.422 21.75 278.518 21.7926L278.156 22.8793C278.092 22.858 278.003 22.8313 277.889 22.7994C277.779 22.7674 277.634 22.7514 277.453 22.7514C277.037 22.7514 276.737 22.8562 276.552 23.0657C276.371 23.2752 276.281 23.5824 276.281 23.9872V33H275.024Z" fill="black"/>
<path d="M154.482 41.0909V52H153.161V41.0909H154.482ZM158.217 47.0781V52H156.96V43.8182H158.174V45.0966H158.281C158.473 44.6811 158.764 44.3473 159.154 44.0952C159.545 43.8395 160.049 43.7116 160.667 43.7116C161.221 43.7116 161.706 43.8253 162.121 44.0526C162.537 44.2763 162.86 44.6172 163.091 45.0753C163.322 45.5298 163.437 46.1051 163.437 46.8011V52H162.18V46.8864C162.18 46.2436 162.013 45.7429 161.679 45.3842C161.346 45.022 160.887 44.8409 160.305 44.8409C159.904 44.8409 159.545 44.9279 159.229 45.1019C158.917 45.2759 158.67 45.5298 158.489 45.8636C158.308 46.1974 158.217 46.6023 158.217 47.0781ZM169.378 43.8182V44.8835H164.967V43.8182H169.378ZM166.288 52V42.6889C166.288 42.2202 166.398 41.8295 166.619 41.517C166.839 41.2045 167.125 40.9702 167.476 40.8139C167.828 40.6577 168.199 40.5795 168.589 40.5795C168.898 40.5795 169.151 40.6044 169.346 40.6541C169.541 40.7038 169.687 40.75 169.783 40.7926L169.42 41.8793C169.356 41.858 169.268 41.8313 169.154 41.7994C169.044 41.7674 168.898 41.7514 168.717 41.7514C168.302 41.7514 168.002 41.8562 167.817 42.0657C167.636 42.2752 167.545 42.5824 167.545 42.9872V52H166.288ZM174.127 52.1705C173.388 52.1705 172.74 51.9947 172.182 51.6431C171.628 51.2915 171.195 50.7997 170.883 50.1676C170.574 49.5355 170.419 48.7969 170.419 47.9517C170.419 47.0994 170.574 46.3555 170.883 45.7198C171.195 45.0842 171.628 44.5906 172.182 44.239C172.74 43.8874 173.388 43.7116 174.127 43.7116C174.865 43.7116 175.511 43.8874 176.065 44.239C176.623 44.5906 177.056 45.0842 177.365 45.7198C177.678 46.3555 177.834 47.0994 177.834 47.9517C177.834 48.7969 177.678 49.5355 177.365 50.1676C177.056 50.7997 176.623 51.2915 176.065 51.6431C175.511 51.9947 174.865 52.1705 174.127 52.1705ZM174.127 51.0412C174.688 51.0412 175.149 50.8974 175.511 50.6097C175.874 50.3221 176.142 49.9439 176.316 49.4751C176.49 49.0064 176.577 48.4986 176.577 47.9517C176.577 47.4048 176.49 46.8952 176.316 46.4229C176.142 45.9506 175.874 45.5689 175.511 45.2777C175.149 44.9865 174.688 44.8409 174.127 44.8409C173.565 44.8409 173.104 44.9865 172.742 45.2777C172.379 45.5689 172.111 45.9506 171.937 46.4229C171.763 46.8952 171.676 47.4048 171.676 47.9517C171.676 48.4986 171.763 49.0064 171.937 49.4751C172.111 49.9439 172.379 50.3221 172.742 50.6097C173.104 50.8974 173.565 51.0412 174.127 51.0412ZM179.753 52V43.8182H180.967V45.054H181.053C181.202 44.6491 181.472 44.3207 181.862 44.0685C182.253 43.8164 182.693 43.6903 183.183 43.6903C183.276 43.6903 183.391 43.6921 183.529 43.6957C183.668 43.6992 183.773 43.7045 183.844 43.7116V44.9901C183.801 44.9794 183.704 44.9634 183.551 44.9421C183.402 44.9173 183.244 44.9048 183.077 44.9048C182.679 44.9048 182.324 44.9883 182.011 45.1552C181.702 45.3185 181.457 45.5458 181.276 45.837C181.099 46.1246 181.01 46.4531 181.01 46.8224V52H179.753ZM185.334 52V43.8182H186.548V45.0966H186.655C186.825 44.6598 187.101 44.3207 187.481 44.0792C187.861 43.8342 188.317 43.7116 188.85 43.7116C189.389 43.7116 189.839 43.8342 190.197 44.0792C190.559 44.3207 190.842 44.6598 191.044 45.0966H191.129C191.339 44.674 191.653 44.3384 192.072 44.0898C192.491 43.8377 192.994 43.7116 193.58 43.7116C194.311 43.7116 194.91 43.9407 195.375 44.3988C195.84 44.8533 196.073 45.5618 196.073 46.5241V52H194.815V46.5241C194.815 45.9205 194.65 45.489 194.32 45.2298C193.99 44.9705 193.601 44.8409 193.154 44.8409C192.578 44.8409 192.133 45.0149 191.817 45.3629C191.5 45.7074 191.342 46.1442 191.342 46.6733V52H190.064V46.3963C190.064 45.9311 189.913 45.5565 189.611 45.2724C189.309 44.9847 188.921 44.8409 188.445 44.8409C188.118 44.8409 187.813 44.9279 187.529 45.1019C187.248 45.2759 187.021 45.5174 186.847 45.8263C186.676 46.1317 186.591 46.4851 186.591 46.8864V52H185.334ZM200.779 52.1918C200.26 52.1918 199.79 52.0941 199.367 51.8988C198.945 51.6999 198.609 51.4141 198.36 51.0412C198.112 50.6648 197.988 50.2102 197.988 49.6776C197.988 49.2088 198.08 48.8288 198.264 48.5376C198.449 48.2429 198.696 48.0121 199.005 47.8452C199.314 47.6783 199.655 47.554 200.028 47.4723C200.404 47.3871 200.782 47.3196 201.162 47.2699C201.659 47.206 202.062 47.158 202.371 47.1261C202.684 47.0906 202.911 47.032 203.053 46.9503C203.199 46.8686 203.272 46.7266 203.272 46.5241V46.4815C203.272 45.956 203.128 45.5476 202.84 45.2564C202.556 44.9652 202.125 44.8196 201.546 44.8196C200.946 44.8196 200.475 44.951 200.134 45.2138C199.793 45.4766 199.554 45.7571 199.415 46.0554L198.222 45.6293C198.435 45.1321 198.719 44.745 199.074 44.468C199.433 44.1875 199.823 43.9922 200.246 43.8821C200.672 43.7685 201.091 43.7116 201.503 43.7116C201.766 43.7116 202.068 43.7436 202.409 43.8075C202.753 43.8679 203.085 43.994 203.405 44.1857C203.728 44.3775 203.996 44.6669 204.209 45.054C204.422 45.4411 204.529 45.9595 204.529 46.6094V52H203.272V50.892H203.208C203.122 51.0696 202.98 51.2596 202.782 51.462C202.583 51.6644 202.318 51.8366 201.988 51.9787C201.658 52.1207 201.255 52.1918 200.779 52.1918ZM200.97 51.0625C201.468 51.0625 201.887 50.9648 202.228 50.7695C202.572 50.5742 202.831 50.3221 203.005 50.0131C203.183 49.7042 203.272 49.3793 203.272 49.0384V47.8878C203.218 47.9517 203.101 48.0103 202.92 48.0636C202.742 48.1133 202.537 48.1577 202.302 48.1967C202.071 48.2322 201.846 48.2642 201.626 48.2926C201.409 48.3175 201.233 48.3388 201.098 48.3565C200.772 48.3991 200.466 48.4684 200.182 48.5643C199.902 48.6566 199.674 48.7969 199.5 48.9851C199.33 49.1697 199.245 49.4219 199.245 49.7415C199.245 50.1783 199.406 50.5085 199.729 50.7322C200.056 50.9524 200.47 51.0625 200.97 51.0625ZM210.381 43.8182V44.8835H206.141V43.8182H210.381ZM207.377 41.858H208.634V49.6562C208.634 50.0114 208.686 50.2777 208.789 50.4553C208.895 50.6293 209.03 50.7464 209.194 50.8068C209.36 50.8636 209.536 50.892 209.721 50.892C209.859 50.892 209.973 50.8849 210.062 50.8707C210.151 50.853 210.222 50.8388 210.275 50.8281L210.531 51.9574C210.445 51.9893 210.326 52.0213 210.174 52.0533C210.021 52.0888 209.827 52.1065 209.593 52.1065C209.238 52.1065 208.89 52.0302 208.549 51.8775C208.212 51.7248 207.931 51.4922 207.707 51.1797C207.487 50.8672 207.377 50.473 207.377 49.9972V41.858ZM212.272 52V43.8182H213.529V52H212.272ZM212.912 42.4545C212.667 42.4545 212.455 42.3711 212.278 42.2042C212.104 42.0373 212.017 41.8366 212.017 41.6023C212.017 41.3679 212.104 41.1673 212.278 41.0004C212.455 40.8335 212.667 40.75 212.912 40.75C213.157 40.75 213.366 40.8335 213.54 41.0004C213.718 41.1673 213.806 41.3679 213.806 41.6023C213.806 41.8366 213.718 42.0373 213.54 42.2042C213.366 42.3711 213.157 42.4545 212.912 42.4545ZM219.156 52.1705C218.417 52.1705 217.769 51.9947 217.212 51.6431C216.658 51.2915 216.224 50.7997 215.912 50.1676C215.603 49.5355 215.448 48.7969 215.448 47.9517C215.448 47.0994 215.603 46.3555 215.912 45.7198C216.224 45.0842 216.658 44.5906 217.212 44.239C217.769 43.8874 218.417 43.7116 219.156 43.7116C219.894 43.7116 220.541 43.8874 221.095 44.239C221.652 44.5906 222.086 45.0842 222.394 45.7198C222.707 46.3555 222.863 47.0994 222.863 47.9517C222.863 48.7969 222.707 49.5355 222.394 50.1676C222.086 50.7997 221.652 51.2915 221.095 51.6431C220.541 51.9947 219.894 52.1705 219.156 52.1705ZM219.156 51.0412C219.717 51.0412 220.179 50.8974 220.541 50.6097C220.903 50.3221 221.171 49.9439 221.345 49.4751C221.519 49.0064 221.606 48.4986 221.606 47.9517C221.606 47.4048 221.519 46.8952 221.345 46.4229C221.171 45.9506 220.903 45.5689 220.541 45.2777C220.179 44.9865 219.717 44.8409 219.156 44.8409C218.595 44.8409 218.133 44.9865 217.771 45.2777C217.409 45.5689 217.141 45.9506 216.967 46.4229C216.793 46.8952 216.706 47.4048 216.706 47.9517C216.706 48.4986 216.793 49.0064 216.967 49.4751C217.141 49.9439 217.409 50.3221 217.771 50.6097C218.133 50.8974 218.595 51.0412 219.156 51.0412ZM226.039 47.0781V52H224.782V43.8182H225.997V45.0966H226.103C226.295 44.6811 226.586 44.3473 226.977 44.0952C227.367 43.8395 227.872 43.7116 228.49 43.7116C229.044 43.7116 229.528 43.8253 229.944 44.0526C230.359 44.2763 230.682 44.6172 230.913 45.0753C231.144 45.5298 231.259 46.1051 231.259 46.8011V52H230.002V46.8864C230.002 46.2436 229.835 45.7429 229.502 45.3842C229.168 45.022 228.71 44.8409 228.127 44.8409C227.726 44.8409 227.367 44.9279 227.051 45.1019C226.739 45.2759 226.492 45.5298 226.311 45.8636C226.13 46.1974 226.039 46.6023 226.039 47.0781ZM237.349 42.2628V41.0909H245.531V42.2628H242.101V52H240.78V42.2628H237.349ZM249.643 52.1705C248.855 52.1705 248.175 51.9964 247.603 51.6484C247.035 51.2969 246.596 50.8068 246.287 50.1783C245.982 49.5462 245.829 48.8111 245.829 47.973C245.829 47.1349 245.982 46.3963 246.287 45.7571C246.596 45.1143 247.026 44.6136 247.576 44.255C248.13 43.8928 248.777 43.7116 249.515 43.7116C249.942 43.7116 250.362 43.7827 250.778 43.9247C251.193 44.0668 251.571 44.2976 251.912 44.6172C252.253 44.9332 252.525 45.3523 252.727 45.8743C252.93 46.3963 253.031 47.0391 253.031 47.8026V48.3352H246.724V47.2486H251.753C251.753 46.7869 251.66 46.375 251.476 46.0128C251.295 45.6506 251.035 45.3647 250.698 45.1552C250.364 44.9457 249.97 44.8409 249.515 44.8409C249.015 44.8409 248.581 44.9652 248.216 45.2138C247.853 45.4588 247.575 45.7784 247.379 46.1726C247.184 46.5668 247.086 46.9893 247.086 47.4403V48.1648C247.086 48.7827 247.193 49.3065 247.406 49.7362C247.623 50.1623 247.923 50.4872 248.306 50.7109C248.69 50.9311 249.135 51.0412 249.643 51.0412C249.973 51.0412 250.272 50.995 250.538 50.9027C250.808 50.8068 251.041 50.6648 251.236 50.4766C251.431 50.2848 251.582 50.0469 251.689 49.7628L252.903 50.1037C252.775 50.5156 252.56 50.8778 252.259 51.1903C251.957 51.4993 251.584 51.7408 251.14 51.9148C250.696 52.0852 250.197 52.1705 249.643 52.1705ZM258.267 52.1705C257.5 52.1705 256.84 51.9893 256.286 51.6271C255.732 51.2649 255.306 50.766 255.007 50.1303C254.709 49.4947 254.56 48.7685 254.56 47.9517C254.56 47.1207 254.712 46.3874 255.018 45.7518C255.327 45.1126 255.757 44.6136 256.307 44.255C256.861 43.8928 257.507 43.7116 258.246 43.7116C258.821 43.7116 259.34 43.8182 259.801 44.0312C260.263 44.2443 260.641 44.5426 260.936 44.9261C261.231 45.3097 261.413 45.7571 261.484 46.2685H260.227C260.132 45.8956 259.918 45.5653 259.588 45.2777C259.261 44.9865 258.821 44.8409 258.267 44.8409C257.777 44.8409 257.347 44.9687 256.978 45.2244C256.612 45.4766 256.326 45.8335 256.12 46.2951C255.918 46.7532 255.817 47.2912 255.817 47.9091C255.817 48.5412 255.916 49.0916 256.115 49.5604C256.318 50.0291 256.602 50.3931 256.967 50.6523C257.337 50.9116 257.77 51.0412 258.267 51.0412C258.594 51.0412 258.89 50.9844 259.157 50.8707C259.423 50.7571 259.649 50.5938 259.833 50.3807C260.018 50.1676 260.149 49.9119 260.227 49.6136H261.484C261.413 50.0966 261.238 50.5316 260.957 50.9187C260.68 51.3022 260.313 51.6076 259.855 51.8349C259.4 52.0586 258.871 52.1705 258.267 52.1705ZM264.579 47.0781V52H263.322V41.0909H264.579V45.0966H264.686C264.878 44.674 265.165 44.3384 265.549 44.0898C265.936 43.8377 266.451 43.7116 267.094 43.7116C267.651 43.7116 268.139 43.8235 268.558 44.0472C268.977 44.2674 269.302 44.6065 269.533 45.0646C269.768 45.5192 269.885 46.098 269.885 46.8011V52H268.628V46.8864C268.628 46.2365 268.459 45.734 268.122 45.3789C267.788 45.0202 267.324 44.8409 266.731 44.8409C266.319 44.8409 265.95 44.9279 265.623 45.1019C265.3 45.2759 265.045 45.5298 264.856 45.8636C264.672 46.1974 264.579 46.6023 264.579 47.0781ZM273.442 47.0781V52H272.185V43.8182H273.399V45.0966H273.506C273.697 44.6811 273.988 44.3473 274.379 44.0952C274.77 43.8395 275.274 43.7116 275.892 43.7116C276.446 43.7116 276.931 43.8253 277.346 44.0526C277.762 44.2763 278.085 44.6172 278.316 45.0753C278.546 45.5298 278.662 46.1051 278.662 46.8011V52H277.405V46.8864C277.405 46.2436 277.238 45.7429 276.904 45.3842C276.57 45.022 276.112 44.8409 275.53 44.8409C275.128 44.8409 274.77 44.9279 274.454 45.1019C274.141 45.2759 273.894 45.5298 273.713 45.8636C273.532 46.1974 273.442 46.6023 273.442 47.0781ZM284.283 52.1705C283.544 52.1705 282.896 51.9947 282.339 51.6431C281.785 51.2915 281.351 50.7997 281.039 50.1676C280.73 49.5355 280.575 48.7969 280.575 47.9517C280.575 47.0994 280.73 46.3555 281.039 45.7198C281.351 45.0842 281.785 44.5906 282.339 44.239C282.896 43.8874 283.544 43.7116 284.283 43.7116C285.021 43.7116 285.668 43.8874 286.222 44.239C286.779 44.5906 287.212 45.0842 287.521 45.7198C287.834 46.3555 287.99 47.0994 287.99 47.9517C287.99 48.7969 287.834 49.5355 287.521 50.1676C287.212 50.7997 286.779 51.2915 286.222 51.6431C285.668 51.9947 285.021 52.1705 284.283 52.1705ZM284.283 51.0412C284.844 51.0412 285.306 50.8974 285.668 50.6097C286.03 50.3221 286.298 49.9439 286.472 49.4751C286.646 49.0064 286.733 48.4986 286.733 47.9517C286.733 47.4048 286.646 46.8952 286.472 46.4229C286.298 45.9506 286.03 45.5689 285.668 45.2777C285.306 44.9865 284.844 44.8409 284.283 44.8409C283.722 44.8409 283.26 44.9865 282.898 45.2777C282.536 45.5689 282.268 45.9506 282.094 46.4229C281.92 46.8952 281.832 47.4048 281.832 47.9517C281.832 48.4986 281.92 49.0064 282.094 49.4751C282.268 49.9439 282.536 50.3221 282.898 50.6097C283.26 50.8974 283.722 51.0412 284.283 51.0412ZM291.166 41.0909V52H289.909V41.0909H291.166ZM296.793 52.1705C296.054 52.1705 295.406 51.9947 294.848 51.6431C294.294 51.2915 293.861 50.7997 293.549 50.1676C293.24 49.5355 293.085 48.7969 293.085 47.9517C293.085 47.0994 293.24 46.3555 293.549 45.7198C293.861 45.0842 294.294 44.5906 294.848 44.239C295.406 43.8874 296.054 43.7116 296.793 43.7116C297.531 43.7116 298.177 43.8874 298.731 44.239C299.289 44.5906 299.722 45.0842 300.031 45.7198C300.344 46.3555 300.5 47.0994 300.5 47.9517C300.5 48.7969 300.344 49.5355 300.031 50.1676C299.722 50.7997 299.289 51.2915 298.731 51.6431C298.177 51.9947 297.531 52.1705 296.793 52.1705ZM296.793 51.0412C297.354 51.0412 297.815 50.8974 298.177 50.6097C298.54 50.3221 298.808 49.9439 298.982 49.4751C299.156 49.0064 299.243 48.4986 299.243 47.9517C299.243 47.4048 299.156 46.8952 298.982 46.4229C298.808 45.9506 298.54 45.5689 298.177 45.2777C297.815 44.9865 297.354 44.8409 296.793 44.8409C296.231 44.8409 295.77 44.9865 295.408 45.2777C295.045 45.5689 294.777 45.9506 294.603 46.4229C294.429 46.8952 294.342 47.4048 294.342 47.9517C294.342 48.4986 294.429 49.0064 294.603 49.4751C294.777 49.9439 295.045 50.3221 295.408 50.6097C295.77 50.8974 296.231 51.0412 296.793 51.0412ZM305.721 55.2386C305.114 55.2386 304.592 55.1605 304.155 55.0043C303.719 54.8516 303.355 54.6491 303.063 54.397C302.776 54.1484 302.547 53.8821 302.376 53.598L303.378 52.8949C303.491 53.044 303.635 53.2145 303.809 53.4062C303.983 53.6016 304.221 53.7702 304.523 53.9123C304.828 54.0579 305.228 54.1307 305.721 54.1307C306.382 54.1307 306.927 53.9709 307.357 53.6513C307.786 53.3317 308.001 52.831 308.001 52.1491V50.4872H307.895C307.802 50.6364 307.671 50.821 307.501 51.0412C307.334 51.2578 307.092 51.4513 306.776 51.6218C306.464 51.7887 306.041 51.8722 305.508 51.8722C304.848 51.8722 304.255 51.7159 303.729 51.4034C303.207 51.0909 302.794 50.6364 302.488 50.0398C302.186 49.4432 302.035 48.7187 302.035 47.8665C302.035 47.0284 302.183 46.2987 302.477 45.6772C302.772 45.0522 303.182 44.5692 303.708 44.2283C304.234 43.8839 304.841 43.7116 305.53 43.7116C306.062 43.7116 306.485 43.8004 306.797 43.978C307.113 44.152 307.355 44.3509 307.522 44.5746C307.692 44.7947 307.824 44.9759 307.916 45.1179H308.044V43.8182H309.258V52.2344C309.258 52.9375 309.099 53.5092 308.779 53.9496C308.463 54.3935 308.037 54.7184 307.501 54.9244C306.968 55.1339 306.375 55.2386 305.721 55.2386ZM305.679 50.7429C306.183 50.7429 306.609 50.6275 306.957 50.3967C307.305 50.1658 307.57 49.8338 307.751 49.4006C307.932 48.9673 308.023 48.4489 308.023 47.8452C308.023 47.2557 307.934 46.7354 307.756 46.2844C307.579 45.8335 307.316 45.4801 306.968 45.2244C306.62 44.9687 306.19 44.8409 305.679 44.8409C305.146 44.8409 304.702 44.9759 304.347 45.2457C303.996 45.5156 303.731 45.8778 303.553 46.3324C303.379 46.7869 303.292 47.2912 303.292 47.8452C303.292 48.4134 303.381 48.9158 303.559 49.3526C303.74 49.7859 304.006 50.1268 304.358 50.3754C304.713 50.6204 305.153 50.7429 305.679 50.7429ZM311.56 52V43.8182H312.817V52H311.56ZM312.199 42.4545C311.954 42.4545 311.742 42.3711 311.565 42.2042C311.391 42.0373 311.304 41.8366 311.304 41.6023C311.304 41.3679 311.391 41.1673 311.565 41.0004C311.742 40.8335 311.954 40.75 312.199 40.75C312.444 40.75 312.653 40.8335 312.827 41.0004C313.005 41.1673 313.094 41.3679 313.094 41.6023C313.094 41.8366 313.005 42.0373 312.827 42.2042C312.653 42.3711 312.444 42.4545 312.199 42.4545ZM318.549 52.1705C317.761 52.1705 317.081 51.9964 316.509 51.6484C315.941 51.2969 315.503 50.8068 315.194 50.1783C314.888 49.5462 314.736 48.8111 314.736 47.973C314.736 47.1349 314.888 46.3963 315.194 45.7571C315.503 45.1143 315.932 44.6136 316.483 44.255C317.037 43.8928 317.683 43.7116 318.422 43.7116C318.848 43.7116 319.269 43.7827 319.684 43.9247C320.1 44.0668 320.478 44.2976 320.819 44.6172C321.16 44.9332 321.431 45.3523 321.634 45.8743C321.836 46.3963 321.937 47.0391 321.937 47.8026V48.3352H315.63V47.2486H320.659C320.659 46.7869 320.567 46.375 320.382 46.0128C320.201 45.6506 319.942 45.3647 319.604 45.1552C319.27 44.9457 318.876 44.8409 318.422 44.8409C317.921 44.8409 317.488 44.9652 317.122 45.2138C316.76 45.4588 316.481 45.7784 316.286 46.1726C316.09 46.5668 315.993 46.9893 315.993 47.4403V48.1648C315.993 48.7827 316.099 49.3065 316.312 49.7362C316.529 50.1623 316.829 50.4872 317.212 50.7109C317.596 50.9311 318.042 51.0412 318.549 51.0412C318.88 51.0412 319.178 50.995 319.444 50.9027C319.714 50.8068 319.947 50.6648 320.142 50.4766C320.337 50.2848 320.488 50.0469 320.595 49.7628L321.809 50.1037C321.682 50.5156 321.467 50.8778 321.165 51.1903C320.863 51.4993 320.49 51.7408 320.046 51.9148C319.602 52.0852 319.103 52.1705 318.549 52.1705ZM329.645 45.6506L328.516 45.9702C328.445 45.782 328.34 45.5991 328.201 45.4215C328.067 45.2404 327.882 45.0913 327.647 44.9741C327.413 44.8569 327.113 44.7983 326.747 44.7983C326.247 44.7983 325.829 44.9137 325.495 45.1445C325.165 45.3718 325 45.6612 325 46.0128C325 46.3253 325.114 46.5721 325.341 46.7532C325.568 46.9343 325.923 47.0852 326.406 47.206L327.621 47.5043C328.352 47.6818 328.897 47.9535 329.256 48.3192C329.615 48.6815 329.794 49.1484 329.794 49.7202C329.794 50.1889 329.659 50.608 329.389 50.9773C329.123 51.3466 328.75 51.6378 328.271 51.8509C327.791 52.0639 327.234 52.1705 326.598 52.1705C325.764 52.1705 325.073 51.9893 324.526 51.6271C323.979 51.2649 323.633 50.7358 323.487 50.0398L324.681 49.7415C324.794 50.1818 325.009 50.5121 325.325 50.7322C325.645 50.9524 326.062 51.0625 326.577 51.0625C327.163 51.0625 327.628 50.9382 327.972 50.6896C328.32 50.4375 328.494 50.1357 328.494 49.7841C328.494 49.5 328.395 49.2621 328.196 49.0703C327.997 48.875 327.692 48.7294 327.28 48.6335L325.916 48.3139C325.167 48.1364 324.617 47.8612 324.265 47.4883C323.917 47.1119 323.743 46.6413 323.743 46.0767C323.743 45.6151 323.873 45.2067 324.132 44.8516C324.395 44.4964 324.752 44.2177 325.203 44.0153C325.657 43.8129 326.172 43.7116 326.747 43.7116C327.557 43.7116 328.193 43.8892 328.654 44.2443C329.119 44.5994 329.45 45.0682 329.645 45.6506Z" fill="black"/>
</g>
<defs>
<filter id="filter0_d_12_123" x="3.37732" y="3.00201" width="139.66" height="73" filterUnits="userSpaceOnUse" color-interpolation-filters="sRGB">
<feFlood flood-opacity="0" result="BackgroundImageFix"/>
<feColorMatrix in="SourceAlpha" type="matrix" values="0 0 0 0 0 0 0 0 0 0 0 0 0 0 0 0 0 0 127 0" result="hardAlpha"/>
<feOffset dx="2" dy="2"/>
<feGaussianBlur stdDeviation="3"/>
<feColorMatrix type="matrix" values="0 0 0 0 0 0 0 0 0 0 0 0 0 0 0 0 0 0 0.141 0"/>
<feBlend mode="normal" in2="BackgroundImageFix" result="effect1_dropShadow_12_123"/>
<feBlend mode="normal" in="SourceGraphic" in2="effect1_dropShadow_12_123" result="shape"/>
</filter>
<clipPath id="clip0_12_123">
<rect width="333" height="79" fill="white"/>
</clipPath>
</defs>
</svg>
