<svg width="464" height="247" viewBox="0 0 464 247" fill="none" xmlns="http://www.w3.org/2000/svg">
<g clip-path="url(#clip0_12_112)">
<path d="M123.061 7.04453C59.0892 7.04453 7.04453 59.0819 7.04453 123.045C7.04453 187.007 59.0892 239.045 123.061 239.045H340.939C404.911 239.045 456.955 187.007 456.955 123.045C456.955 59.0819 404.911 7.04453 340.939 7.04453H123.061ZM123.061 0H340.939C408.904 0 464 55.0889 464 123.045C464 191 408.904 246.089 340.939 246.089H123.061C55.0963 246.089 0 191 0 123.045C0 55.0889 55.0963 0 123.061 0Z" fill="white"/>
<path d="M341.006 223.892C334.176 223.893 327.363 223.207 320.671 221.843C307.766 219.202 295.507 214.046 284.593 206.67C268.373 195.727 255.675 180.315 248.038 162.3C245.458 156.199 243.488 149.858 242.159 143.368C239.425 129.957 239.425 116.132 242.159 102.72C244.802 89.8196 249.961 77.5662 257.341 66.6596C268.294 50.4442 283.713 37.7525 301.732 30.122C307.836 27.5434 314.18 25.5753 320.672 24.2463C334.091 21.5143 347.923 21.5143 361.342 24.2463C374.248 26.888 386.507 32.0441 397.421 39.4207C413.64 50.3638 426.338 65.7761 433.974 83.79C436.554 89.8905 438.524 96.2314 439.854 102.72C442.587 116.132 442.587 129.957 439.854 143.368C437.21 156.27 432.051 168.524 424.672 179.431C413.719 195.647 398.299 208.338 380.28 215.969C374.176 218.548 367.832 220.516 361.34 221.845C354.648 223.208 347.836 223.894 341.006 223.892ZM308.347 91.6527C288.956 91.6527 277.37 107.2 277.37 122.231C277.37 137.34 289.017 152.969 308.506 152.969C322.952 152.969 334.951 143.632 338.366 129.736H322.558C321.602 131.878 320.27 133.831 318.626 135.504C317.286 136.864 315.685 137.939 313.918 138.663C312.151 139.386 310.256 139.745 308.347 139.716C306.127 139.738 303.93 139.261 301.917 138.322C299.905 137.382 298.13 136.003 296.721 134.287C295.336 132.621 294.265 130.717 293.561 128.668C292.829 126.573 292.457 124.37 292.459 122.151C292.447 117.877 293.894 113.726 296.561 110.385C297.911 108.724 299.602 107.372 301.52 106.422C303.623 105.403 305.932 104.885 308.268 104.906C310.125 104.894 311.968 105.231 313.701 105.898C315.213 106.494 316.612 107.343 317.839 108.409C319.938 110.26 321.558 112.592 322.559 115.205H338.367C337.458 109.938 334.22 104.238 329.704 99.9558C325.706 96.1682 318.757 91.6527 308.347 91.6527ZM367.427 92.7709V106.024H379.083V151.852H394.173V106.024H405.749V92.7709H367.427ZM346.19 92.7709V151.851H361.279V92.7709H346.19Z" fill="white"/>
<path d="M87.1931 110.4C86.993 108.382 86.1341 106.815 84.6165 105.697C83.0988 104.58 81.0392 104.021 78.4375 104.021C76.6697 104.021 75.1771 104.271 73.9596 104.772C72.7422 105.255 71.8082 105.931 71.1578 106.798C70.5241 107.665 70.2072 108.649 70.2072 109.75C70.1739 110.667 70.3656 111.468 70.7826 112.151C71.2162 112.835 71.8082 113.427 72.5587 113.928C73.3092 114.411 74.1764 114.836 75.1604 115.203C76.1444 115.554 77.195 115.854 78.3124 116.104L82.9154 117.205C85.1502 117.705 87.2015 118.372 89.0694 119.206C90.9372 120.04 92.5549 121.066 93.9225 122.283C95.29 123.5 96.349 124.935 97.0995 126.586C97.8667 128.237 98.2586 130.13 98.2753 132.264C98.2586 135.4 97.4581 138.118 95.8737 140.42C94.3061 142.704 92.0379 144.481 89.0694 145.748C86.1175 146.999 82.5568 147.624 78.3875 147.624C74.2515 147.624 70.6492 146.991 67.5805 145.723C64.5286 144.456 62.1437 142.579 60.4259 140.094C58.7248 137.593 57.8326 134.499 57.7492 130.813H68.2309C68.3477 132.531 68.8397 133.965 69.7069 135.116C70.5908 136.25 71.7665 137.109 73.2342 137.693C74.7184 138.26 76.3945 138.543 78.2624 138.543C80.0969 138.543 81.6896 138.277 83.0405 137.743C84.408 137.209 85.467 136.467 86.2175 135.516C86.968 134.566 87.3432 133.473 87.3432 132.239C87.3432 131.089 87.0014 130.121 86.3176 129.337C85.6505 128.554 84.6665 127.887 83.3657 127.336C82.0815 126.786 80.5055 126.286 78.6376 125.835L73.059 124.434C68.7396 123.384 65.3291 121.741 62.8275 119.506C60.3258 117.271 59.0834 114.261 59.1001 110.475C59.0834 107.373 59.9089 104.663 61.5767 102.345C63.2611 100.027 65.5709 98.2175 68.5061 96.9166C71.4413 95.6158 74.7768 94.9654 78.5126 94.9654C82.315 94.9654 85.6338 95.6158 88.469 96.9166C91.3208 98.2175 93.5389 100.027 95.1232 102.345C96.7076 104.663 97.5248 107.348 97.5748 110.4H87.1931ZM125.799 108.474V116.479H102.659V108.474H125.799ZM107.913 99.2681H118.57V135.091C118.57 136.075 118.72 136.842 119.02 137.393C119.32 137.926 119.737 138.302 120.271 138.518C120.821 138.735 121.455 138.844 122.172 138.844C122.672 138.844 123.173 138.802 123.673 138.719C124.173 138.618 124.557 138.543 124.824 138.493L126.5 146.423C125.966 146.59 125.216 146.782 124.248 146.999C123.281 147.232 122.105 147.374 120.721 147.424C118.153 147.524 115.901 147.182 113.967 146.398C112.049 145.615 110.556 144.397 109.489 142.746C108.421 141.095 107.896 139.01 107.913 136.492V99.2681ZM157.382 130.538V108.474H168.039V146.899H157.807V139.919H157.407C156.54 142.171 155.097 143.98 153.079 145.348C151.078 146.715 148.635 147.399 145.75 147.399C143.181 147.399 140.921 146.815 138.97 145.648C137.019 144.481 135.493 142.821 134.392 140.67C133.308 138.518 132.758 135.942 132.741 132.94V108.474H143.398V131.039C143.415 133.307 144.023 135.1 145.224 136.417C146.425 137.735 148.034 138.393 150.052 138.393C151.337 138.393 152.537 138.101 153.655 137.518C154.772 136.917 155.673 136.033 156.356 134.866C157.057 133.699 157.399 132.256 157.382 130.538ZM190.722 147.524C187.804 147.524 185.16 146.774 182.792 145.273C180.441 143.755 178.573 141.529 177.189 138.593C175.821 135.642 175.137 132.023 175.137 127.736C175.137 123.334 175.846 119.673 177.264 116.754C178.681 113.819 180.566 111.626 182.917 110.175C185.285 108.708 187.879 107.974 190.697 107.974C192.849 107.974 194.641 108.341 196.076 109.074C197.527 109.792 198.694 110.692 199.578 111.776C200.479 112.844 201.162 113.894 201.629 114.928H201.955V95.6658H212.586V146.899H202.08V140.745H201.629C201.129 141.812 200.42 142.871 199.503 143.922C198.602 144.956 197.427 145.815 195.976 146.499C194.541 147.182 192.79 147.524 190.722 147.524ZM194.099 139.044C195.817 139.044 197.268 138.577 198.452 137.643C199.653 136.692 200.57 135.366 201.204 133.665C201.854 131.964 202.18 129.971 202.18 127.686C202.18 125.402 201.863 123.417 201.229 121.733C200.595 120.048 199.678 118.747 198.477 117.83C197.276 116.913 195.817 116.454 194.099 116.454C192.348 116.454 190.872 116.93 189.672 117.88C188.471 118.831 187.562 120.148 186.945 121.833C186.328 123.517 186.019 125.468 186.019 127.686C186.019 129.921 186.328 131.897 186.945 133.615C187.579 135.316 188.488 136.651 189.672 137.618C190.872 138.568 192.348 139.044 194.099 139.044Z" fill="white"/>
</g>
<defs>
<clipPath id="clip0_12_112">
<rect width="464" height="246.089" fill="white"/>
</clipPath>
</defs>
</svg>
