<svg width="50" height="50" viewBox="0 0 50 50" fill="none" xmlns="http://www.w3.org/2000/svg">
<path d="M47.9167 15.0322V40.9379C47.9167 41.995 47.4967 43.0088 46.7494 43.7563C46.0019 44.5035 44.9882 44.9235 43.9313 44.9235H6.06887C5.5455 44.9235 5.02723 44.8204 4.54369 44.6202C4.06014 44.4198 3.62079 44.1263 3.25071 43.7563C2.50327 43.0088 2.08337 41.995 2.08337 40.9379V15.0322H47.9167Z" fill="#66E1FF"/>
<path d="M6.06887 44.9235H10.0544L39.9457 15.0322H2.08337V40.9379C2.08337 41.995 2.50327 43.0088 3.25071 43.7563C3.99812 44.5035 5.01185 44.9235 6.06887 44.9235Z" fill="#C2F3FF"/>
<path d="M47.9167 15.0322H2.08337V9.05395C2.08337 7.99693 2.50327 6.9832 3.25071 6.23578C3.99812 5.48835 5.01185 5.06845 6.06887 5.06845H43.9313C44.9882 5.06845 46.0019 5.48835 46.7494 6.23578C47.4967 6.9832 47.9167 7.99693 47.9167 9.05395V15.0322Z" fill="white"/>
<path d="M43.9313 5.07608H6.06887C5.5455 5.07608 5.02723 5.17918 4.54369 5.37948C4.06014 5.57975 3.62079 5.87333 3.25071 6.24341C2.50327 6.99085 2.08337 8.00458 2.08337 9.0616V40.9456C2.08337 42.0027 2.50327 43.0165 3.25071 43.7637C3.62079 44.134 4.06014 44.4275 4.54369 44.6277C5.02723 44.8281 5.5455 44.9312 6.06887 44.9312H43.9313C44.9882 44.9312 46.0019 44.5112 46.7494 43.7637C47.4967 43.0165 47.9167 42.0027 47.9167 40.9456V9.0616C47.9167 8.00458 47.4967 6.99085 46.7494 6.24341C46.0019 5.496 44.9882 5.07608 43.9313 5.07608Z" stroke="#191919" stroke-linecap="round" stroke-linejoin="round"/>
<path d="M2.08337 15.0402H47.9167" stroke="#191919" stroke-linecap="round" stroke-linejoin="round"/>
<path d="M9.05739 10.5565C8.92527 10.5565 8.79854 10.504 8.70512 10.4106C8.61168 10.3172 8.5592 10.1905 8.5592 10.0583C8.5592 9.92621 8.61168 9.79948 8.70512 9.70607C8.79854 9.61263 8.92527 9.56015 9.05739 9.56015" stroke="#191919"/>
<path d="M9.05762 10.5565C9.18974 10.5565 9.31645 10.504 9.40989 10.4106C9.5033 10.3172 9.5558 10.1905 9.5558 10.0583C9.5558 9.92621 9.5033 9.79948 9.40989 9.70607C9.31645 9.61263 9.18974 9.56015 9.05762 9.56015" stroke="#191919"/>
<path d="M37.9522 23.0113H18.0247" stroke="#191919" stroke-linecap="round" stroke-linejoin="round"/>
<path d="M10.0535 23.0113H12.0462" stroke="#191919" stroke-linecap="round" stroke-linejoin="round"/>
<path d="M37.9522 28.9894H18.0247" stroke="#191919" stroke-linecap="round" stroke-linejoin="round"/>
<path d="M10.0535 28.9894H12.0462" stroke="#191919" stroke-linecap="round" stroke-linejoin="round"/>
<path d="M37.9522 34.9677H18.0247" stroke="#191919" stroke-linecap="round" stroke-linejoin="round"/>
<path d="M10.0535 34.9677H12.0462" stroke="#191919" stroke-linecap="round" stroke-linejoin="round"/>
<path d="M15.0358 10.5565C14.9037 10.5565 14.7769 10.504 14.6835 10.4106C14.5901 10.3172 14.5376 10.1905 14.5376 10.0583C14.5376 9.92621 14.5901 9.79948 14.6835 9.70607C14.7769 9.61263 14.9037 9.56015 15.0358 9.56015" stroke="#191919"/>
<path d="M15.036 10.5565C15.1681 10.5565 15.2948 10.504 15.3883 10.4106C15.4817 10.3172 15.5342 10.1905 15.5342 10.0583C15.5342 9.92621 15.4817 9.79948 15.3883 9.70607C15.2948 9.61263 15.1681 9.56015 15.036 9.56015" stroke="#191919"/>
<path d="M21.0142 10.5645C20.8821 10.5645 20.7553 10.512 20.6619 10.4185C20.5685 10.3251 20.516 10.1984 20.516 10.0663C20.516 9.93415 20.5685 9.80744 20.6619 9.714C20.7553 9.62059 20.8821 9.56808 21.0142 9.56808" stroke="#191919"/>
<path d="M21.0133 10.5645C21.1454 10.5645 21.2723 10.512 21.3656 10.4185C21.4591 10.3251 21.5116 10.1984 21.5116 10.0663C21.5116 9.93415 21.4591 9.80744 21.3656 9.714C21.2723 9.62059 21.1454 9.56808 21.0133 9.56808" stroke="#191919"/>
</svg>
