<svg width="50" height="50" viewBox="0 0 50 50" fill="none" xmlns="http://www.w3.org/2000/svg">
<path d="M47.9167 15.0321V40.9379C47.9167 41.995 47.4967 43.0087 46.7494 43.756C46.0019 44.5035 44.9882 44.9233 43.9313 44.9233H6.06887C5.01185 44.9233 3.99812 44.5035 3.25071 43.756C2.50327 43.0087 2.08337 41.995 2.08337 40.9379V15.0321H47.9167Z" fill="#66E1FF"/>
<path d="M6.06887 44.9233H10.0544L39.9457 15.0321H2.08337V40.9379C2.08337 41.995 2.50327 43.0087 3.25071 43.756C3.99812 44.5035 5.01185 44.9233 6.06887 44.9233Z" fill="#C2F3FF"/>
<path d="M47.9167 15.0322H2.08337V9.05396C2.08337 7.99694 2.50327 6.98321 3.25071 6.23579C3.99812 5.48835 5.01185 5.06846 6.06887 5.06846H43.9313C44.9882 5.06846 46.0019 5.48835 46.7494 6.23579C47.4967 6.98321 47.9167 7.99694 47.9167 9.05396V15.0322Z" fill="white"/>
<path d="M43.9313 5.07642H6.06887C5.01185 5.07642 3.99812 5.49631 3.25071 6.24373C2.50327 6.99117 2.08337 8.00489 2.08337 9.06192V40.946C2.08337 42.0029 2.50327 43.0167 3.25071 43.7642C3.99812 44.5117 5.01185 44.9315 6.06887 44.9315H43.9313C44.9882 44.9315 46.0019 44.5117 46.7494 43.7642C47.4967 43.0167 47.9167 42.0029 47.9167 40.946V9.06192C47.9167 8.00489 47.4967 6.99117 46.7494 6.24373C46.0019 5.49631 44.9882 5.07642 43.9313 5.07642Z" stroke="#191919" stroke-linecap="round" stroke-linejoin="round"/>
<path d="M2.08337 15.0401H47.9167" stroke="#191919" stroke-linecap="round" stroke-linejoin="round"/>
<path d="M12.0463 25.004L17.0281 29.9858L12.0463 34.9677" stroke="#191919" stroke-linecap="round" stroke-linejoin="round"/>
<path d="M24.0021 30.9823H31.9731" stroke="#191919" stroke-linecap="round" stroke-linejoin="round"/>
<path d="M15.0358 10.5565C14.9037 10.5565 14.7769 10.504 14.6835 10.4106C14.5901 10.3172 14.5376 10.1905 14.5376 10.0583C14.5376 9.92621 14.5901 9.79948 14.6835 9.70606C14.7769 9.61262 14.9037 9.56015 15.0358 9.56015" stroke="#191919"/>
<path d="M15.035 10.5565C15.1672 10.5565 15.2939 10.504 15.3873 10.4106C15.4807 10.3172 15.5332 10.1905 15.5332 10.0583C15.5332 9.92621 15.4807 9.79948 15.3873 9.70606C15.2939 9.61262 15.1672 9.56015 15.035 9.56015" stroke="#191919"/>
<path d="M9.05739 10.5565C8.92527 10.5565 8.79854 10.504 8.70512 10.4106C8.61168 10.3172 8.5592 10.1905 8.5592 10.0583C8.5592 9.92621 8.61168 9.79948 8.70512 9.70606C8.79854 9.61262 8.92527 9.56015 9.05739 9.56015" stroke="#191919"/>
<path d="M9.05664 10.5565C9.18877 10.5565 9.31547 10.504 9.40891 10.4106C9.50233 10.3172 9.55483 10.1905 9.55483 10.0583C9.55483 9.92621 9.50233 9.79948 9.40891 9.70606C9.31547 9.61262 9.18877 9.56015 9.05664 9.56015" stroke="#191919"/>
<path d="M21.0142 10.5645C20.8821 10.5645 20.7553 10.512 20.6619 10.4185C20.5685 10.3251 20.516 10.1984 20.516 10.0663C20.516 9.93415 20.5685 9.80744 20.6619 9.714C20.7553 9.62059 20.8821 9.56808 21.0142 9.56808" stroke="#191919"/>
<path d="M21.0133 10.5645C21.1454 10.5645 21.2723 10.512 21.3656 10.4185C21.4591 10.3251 21.5116 10.1984 21.5116 10.0663C21.5116 9.93415 21.4591 9.80744 21.3656 9.714C21.2723 9.62059 21.1454 9.56808 21.0133 9.56808" stroke="#191919"/>
</svg>
