<svg width="50" height="50" viewBox="0 0 50 50" fill="none" xmlns="http://www.w3.org/2000/svg">
<path d="M6.06887 44.9275C5.01185 44.9275 3.99812 44.5077 3.25071 43.7602C2.50327 43.0127 2.08337 41.999 2.08337 40.9421V15.0362H14.0399V44.9275H6.06887Z" fill="#66E1FF"/>
<path d="M14.0399 15.0362H2.08337V40.9421C2.08337 41.999 2.50327 43.0127 3.25071 43.7602C3.99812 44.5077 5.01185 44.9275 6.06887 44.9275H11.0508L14.0399 41.9383V15.0362Z" fill="#C2F3FF"/>
<path d="M14.0402 15.0362H47.9169V40.9421C47.9169 41.999 47.4971 43.0127 46.7496 43.7602C46.0021 44.5077 44.9886 44.9275 43.9315 44.9275H14.0402V15.0362Z" fill="#E3E3E3"/>
<path d="M40.9423 15.0362H14.0402V41.9383L40.9423 15.0362Z" fill="white"/>
<path d="M47.9167 15.0362H2.08337V9.05798C2.08337 8.00096 2.50327 6.98723 3.25071 6.23979C3.99812 5.49237 5.01185 5.07246 6.06887 5.07246H43.9313C44.9882 5.07246 46.0019 5.49237 46.7494 6.23979C47.4967 6.98723 47.9167 8.00096 47.9167 9.05798V15.0362Z" fill="white"/>
<path d="M43.9313 5.07246H6.06887C5.5455 5.07246 5.02723 5.17556 4.54369 5.37585C4.06014 5.57614 3.62079 5.86971 3.25071 6.23979C2.50327 6.98723 2.08337 8.00096 2.08337 9.05798V40.9421C2.08337 41.999 2.50327 43.0127 3.25071 43.7602C3.62079 44.1302 4.06014 44.424 4.54369 44.6242C5.02723 44.8244 5.5455 44.9275 6.06887 44.9275H43.9313C44.9882 44.9275 46.0019 44.5077 46.7494 43.7602C47.4967 43.0127 47.9167 41.999 47.9167 40.9421V9.05798C47.9167 8.00096 47.4967 6.98723 46.7494 6.23979C46.0019 5.49237 44.9882 5.07246 43.9313 5.07246Z" stroke="#191919" stroke-linecap="round" stroke-linejoin="round"/>
<path d="M2.08337 15.0362H47.9167" stroke="#191919" stroke-linecap="round" stroke-linejoin="round"/>
<path d="M14.0402 15.0362V44.9275" stroke="#191919" stroke-linecap="round" stroke-linejoin="round"/>
<path d="M14.0402 28.9856H47.9169" stroke="#191919" stroke-linecap="round" stroke-linejoin="round"/>
<path d="M15.0358 10.5525C14.9037 10.5525 14.7769 10.5 14.6835 10.4066C14.5901 10.3132 14.5376 10.1865 14.5376 10.0543C14.5376 9.92219 14.5901 9.79548 14.6835 9.70204C14.7769 9.60863 14.9037 9.55613 15.0358 9.55613" stroke="#191919"/>
<path d="M15.036 10.5525C15.1681 10.5525 15.2948 10.5 15.3883 10.4066C15.4817 10.3132 15.5342 10.1865 15.5342 10.0543C15.5342 9.92219 15.4817 9.79548 15.3883 9.70204C15.2948 9.60863 15.1681 9.55613 15.036 9.55613" stroke="#191919"/>
<path d="M21.0142 10.5525C20.8821 10.5525 20.7553 10.5 20.6619 10.4066C20.5685 10.3132 20.516 10.1865 20.516 10.0543C20.516 9.92219 20.5685 9.79548 20.6619 9.70204C20.7553 9.60863 20.8821 9.55613 21.0142 9.55613" stroke="#191919"/>
<path d="M21.0133 10.5525C21.1454 10.5525 21.2723 10.5 21.3656 10.4066C21.4591 10.3132 21.5116 10.1865 21.5116 10.0543C21.5116 9.92219 21.4591 9.79548 21.3656 9.70204C21.2723 9.60863 21.1454 9.55613 21.0133 9.55613" stroke="#191919"/>
<path d="M9.05739 10.5525C8.92527 10.5525 8.79854 10.5 8.70512 10.4066C8.61168 10.3132 8.5592 10.1865 8.5592 10.0543C8.5592 9.92219 8.61168 9.79548 8.70512 9.70204C8.79854 9.60863 8.92527 9.55613 9.05739 9.55613" stroke="#191919"/>
<path d="M9.05762 10.5525C9.18974 10.5525 9.31645 10.5 9.40989 10.4066C9.5033 10.3132 9.5558 10.1865 9.5558 10.0543C9.5558 9.92219 9.5033 9.79548 9.40989 9.70204C9.31645 9.60863 9.18974 9.55613 9.05762 9.55613" stroke="#191919"/>
</svg>
