<svg width="70" height="70" viewBox="0 0 70 70" fill="none" xmlns="http://www.w3.org/2000/svg">
<path d="M67.0836 30.8152V55.9239C67.0836 57.4038 66.4956 58.823 65.4491 59.8692C64.4029 60.9157 62.9836 61.5037 61.5037 61.5037H16.8661C15.3862 61.5037 13.967 60.9157 12.9206 59.8692C11.8742 58.823 11.2864 57.4038 11.2864 55.9239V30.8152H67.0836Z" fill="#66E1FF"/>
<path d="M54.5291 30.8152H11.2864V55.9239C11.2864 57.4038 11.8742 58.823 12.9206 59.8692C13.967 60.9157 15.3862 61.5037 16.8661 61.5037H23.8407L54.5291 30.8152Z" fill="#C2F3FF"/>
<path d="M67.0836 30.8152H11.2864V25.2355C11.2864 23.7557 11.8742 22.3365 12.9206 21.2901C13.967 20.2437 15.3862 19.6558 16.8661 19.6558H61.5037C62.9836 19.6558 64.4029 20.2437 65.4491 21.2901C66.4956 22.3365 67.0836 23.7557 67.0836 25.2355V30.8152Z" fill="white"/>
<path d="M58.7136 19.6558V44.7644C58.7136 46.2443 58.1259 47.6636 57.0794 48.7101C56.0332 49.7563 54.614 50.3443 53.134 50.3443H8.49633C7.7636 50.3443 7.03802 50.1999 6.36106 49.9196C5.68411 49.639 5.06901 49.2281 4.55089 48.7101C4.03275 48.1918 3.62176 47.5767 3.34135 46.8997C3.06094 46.2228 2.91663 45.4974 2.91663 44.7644V19.6558H58.7136Z" fill="#66E1FF"/>
<path d="M46.1594 19.6558H2.91663V44.7644C2.91663 46.2443 3.50448 47.6636 4.55089 48.7101C5.59728 49.7563 7.0165 50.3443 8.49633 50.3443H15.471L46.1594 19.6558Z" fill="#C2F3FF"/>
<path d="M58.7136 19.6557H2.91663V14.076C2.91663 12.5962 3.50448 11.177 4.55089 10.1306C5.59728 9.08419 7.0165 8.49631 8.49633 8.49631H53.134C54.614 8.49631 56.0332 9.08419 57.0794 10.1306C58.1259 11.177 58.7136 12.5962 58.7136 14.076V19.6557Z" fill="white"/>
<path d="M2.91663 19.6669H58.7136" stroke="#191919" stroke-linecap="round" stroke-linejoin="round"/>
<path d="M53.134 8.50702H8.49633C7.0165 8.50702 5.59728 9.09487 4.55089 10.1413C3.50448 11.1877 2.91663 12.6069 2.91663 14.0867V44.7752C2.91663 46.2548 3.50448 47.6741 4.55089 48.7206C5.59728 49.7671 7.0165 50.3548 8.49633 50.3548H53.134C53.8667 50.3548 54.5924 50.2104 55.2693 49.9301C55.9463 49.6498 56.5614 49.2386 57.0794 48.7206C57.5977 48.2026 58.0087 47.5875 58.289 46.9105C58.5695 46.2335 58.7136 45.5079 58.7136 44.7752V14.0867C58.7136 12.6069 58.1259 11.1877 57.0794 10.1413C56.0332 9.09487 54.614 8.50702 53.134 8.50702Z" stroke="#191919" stroke-linecap="round" stroke-linejoin="round"/>
<path d="M58.7122 30.8263H67.0816" stroke="#191919" stroke-linecap="round" stroke-linejoin="round"/>
<path d="M58.7139 19.6558H61.5037C62.9836 19.6558 64.4029 20.2437 65.4491 21.2901C66.4956 22.3365 67.0836 23.7557 67.0836 25.2355V55.9239C67.0836 57.4038 66.4956 58.823 65.4491 59.8692C64.4029 60.9157 62.9836 61.5037 61.5037 61.5037H16.8661C15.3862 61.5037 13.967 60.9157 12.9206 59.8692C11.8742 58.823 11.2864 57.4038 11.2864 55.9239V50.3443" stroke="#191919" stroke-linecap="round" stroke-linejoin="round"/>
<path d="M16.8659 14.7847C16.6809 14.7847 16.5035 14.7113 16.3727 14.5804C16.2419 14.4497 16.1685 14.2722 16.1685 14.0873C16.1685 13.9023 16.2419 13.7249 16.3727 13.5941C16.5035 13.4633 16.6809 13.3898 16.8659 13.3898" stroke="#191919"/>
<path d="M16.8649 14.7847C17.0498 14.7847 17.2272 14.7113 17.358 14.5804C17.4888 14.4497 17.5623 14.2722 17.5623 14.0873C17.5623 13.9023 17.4888 13.7249 17.358 13.5941C17.2272 13.4633 17.0498 13.3898 16.8649 13.3898" stroke="#191919"/>
<path d="M22.4458 14.7847C22.2608 14.7847 22.0834 14.7113 21.9526 14.5804C21.8218 14.4497 21.7483 14.2722 21.7483 14.0873C21.7483 13.9023 21.8218 13.7249 21.9526 13.5941C22.0834 13.4633 22.2608 13.3898 22.4458 13.3898" stroke="#191919"/>
<path d="M22.4447 14.7847C22.6297 14.7847 22.8071 14.7113 22.9379 14.5804C23.0687 14.4497 23.1422 14.2722 23.1422 14.0873C23.1422 13.9023 23.0687 13.7249 22.9379 13.5941C22.8071 13.4633 22.6297 13.3898 22.4447 13.3898" stroke="#191919"/>
<path d="M11.2846 14.7735C11.0996 14.7735 10.9223 14.7 10.7914 14.5692C10.6607 14.4384 10.5872 14.261 10.5872 14.0761C10.5872 13.8911 10.6607 13.7137 10.7914 13.5829C10.9223 13.4521 11.0996 13.3786 11.2846 13.3786" stroke="#191919"/>
<path d="M11.285 14.7735C11.47 14.7735 11.6474 14.7 11.7782 14.5692C11.909 14.4384 11.9825 14.261 11.9825 14.0761C11.9825 13.8911 11.909 13.7137 11.7782 13.5829C11.6474 13.4521 11.47 13.3786 11.285 13.3786" stroke="#191919"/>
<path d="M26.9277 34.9645C26.9291 33.3437 26.5343 31.7468 25.7779 30.3133C25.0214 28.8795 23.9262 27.6524 22.5875 26.7385L16.964 34.9645L23.3508 42.6108C24.4714 41.6768 25.3731 40.5076 25.9914 39.1864C26.6096 37.8647 26.9291 36.4237 26.9277 34.9645Z" fill="#78EB7B"/>
<path d="M22.5873 26.7387C21.0904 25.7152 19.3424 25.1196 17.532 25.0162C15.7215 24.9128 13.9171 25.3054 12.3134 26.1518C10.7096 26.9983 9.36719 28.2662 8.43085 29.8193C7.49454 31.3722 6.99983 33.1514 7 34.9647H16.9638L22.5873 26.7387Z" fill="#FFBFC5"/>
<path d="M7 34.9647C7.00027 36.8593 7.54069 38.7145 8.55785 40.3128C9.57504 41.9112 11.0269 43.1864 12.743 43.9889C14.4592 44.7916 16.3686 45.0881 18.2474 44.8441C20.1261 44.6001 21.8964 43.8253 23.3506 42.611L16.9638 34.9647H7Z" fill="#FFEF5E"/>
<path d="M16.9638 44.9364C22.4666 44.9364 26.9275 40.4758 26.9275 34.9727C26.9275 29.47 22.4666 25.009 16.9638 25.009C11.4609 25.009 7 29.47 7 34.9727C7 40.4758 11.4609 44.9364 16.9638 44.9364Z" stroke="#191919" stroke-linecap="round" stroke-linejoin="round"/>
<path d="M22.5856 26.7466L16.964 34.9727L23.3508 42.6189" stroke="#191919" stroke-linecap="round" stroke-linejoin="round"/>
<path d="M16.9638 34.9727H7" stroke="#191919" stroke-linecap="round" stroke-linejoin="round"/>
<path d="M35 28H49" stroke="#191919" stroke-linecap="round" stroke-linejoin="round"/>
<path d="M35 34H49" stroke="#191919" stroke-linecap="round" stroke-linejoin="round"/>
<path d="M35 40H49" stroke="#191919" stroke-linecap="round" stroke-linejoin="round"/>
</svg>
